<svg width="36" height="33" viewBox="0 0 36 33" fill="none" xmlns="http://www.w3.org/2000/svg">
<path d="M13 32C13.5523 32 14 31.5523 14 31C14 30.4477 13.5523 30 13 30C12.4477 30 12 30.4477 12 31C12 31.5523 12.4477 32 13 32Z" stroke="#323534" stroke-width="2" stroke-linecap="round" stroke-linejoin="round"/>
<path d="M30 32C30.5523 32 31 31.5523 31 31C31 30.4477 30.5523 30 30 30C29.4477 30 29 30.4477 29 31C29 31.5523 29.4477 32 30 32Z" stroke="#323534" stroke-width="2" stroke-linecap="round" stroke-linejoin="round"/>
<path d="M1 1.2666H6.51884L10.658 25.0666H32.7333" stroke="#323534" stroke-width="2" stroke-linecap="round" stroke-linejoin="round"/>
<path d="M10.535 19.3999H31.8543C32.0124 19.4 32.1657 19.3501 32.288 19.2588C32.4103 19.1674 32.4942 19.0402 32.5252 18.8989L34.9867 7.67889C35.0066 7.58842 35.0041 7.49505 34.9796 7.40553C34.9551 7.31602 34.9091 7.23258 34.8449 7.16124C34.7807 7.0899 34.6999 7.03244 34.6084 6.99301C34.5169 6.95358 34.417 6.93316 34.3158 6.93323H7.79999" stroke="#323534" stroke-width="2" stroke-linecap="round" stroke-linejoin="round"/>
</svg>
