<svg width="130" height="130" viewBox="0 0 130 130" fill="none" xmlns="http://www.w3.org/2000/svg">
<path d="M69.5687 99.0654L58.1765 78.9935L105.373 29.085L82.5883 86.0457L69.5687 99.0654Z" fill="#A67D0C"/>
<path d="M105.915 28.5425L58.1765 78.9935L33.2222 71.3987L105.915 28.5425Z" fill="#FACE50"/>
<path d="M107 93.6405L69.5686 82.2484L107 28.5425V93.6405Z" fill="#FACE50"/>
<path d="M107 28V93.6405L82.5882 86.2109M107 28L58.1765 78.9935M107 28L69.5686 82.2484M107 28L75.5359 46.3732M69.5686 82.2484V99.6078M69.5686 82.2484L82.5882 86.2109M69.5686 99.6078L58.1765 78.9935M69.5686 99.6078L82.5882 86.2109M58.1765 78.9935L32.6797 71.3987L63.0588 53.6591M48.4118 86.2109C42.0788 92.502 32.1951 102.32 32.1951 102.32M23.4575 111L25.6419 108.83L27.8263 106.66M44.6144 111L46.2418 109.373M57.634 97.9804L49.4967 106.118M78.2484 106.118L86.3856 97.9804M68.4837 50.4913L69.5686 49.8577" stroke="#1B1E1D" stroke-width="2" stroke-linecap="round" stroke-linejoin="round"/>
</svg>
