<svg width="32" height="32" viewBox="0 0 32 32" fill="none" xmlns="http://www.w3.org/2000/svg">
<path d="M9.60172 25.5993C7.83387 25.5993 6.41797 27.0312 6.41797 28.7991C6.41797 30.567 7.83387 31.9989 9.60172 31.9989C11.3696 31.9989 12.8015 30.567 12.8015 28.7991C12.8015 27.0312 11.3696 25.5993 9.60172 25.5993Z" fill="#FACE50"/>
<path d="M11.3612 17.6H23.2803C24.4802 17.6 25.5281 16.936 26.0801 15.9521L31.7997 5.56879C31.9277 5.34478 31.9997 5.0808 31.9997 4.80085C31.9997 3.91291 31.2798 3.20099 30.3998 3.20099H6.74547L5.39911 0.366566C5.29311 0.143403 5.06812 0.00119019 4.82106 0.00119019H1.60184C0.718246 0.00119019 0.00195312 0.717495 0.00195312 1.60109C0.00195312 2.48468 0.718247 3.20099 1.60184 3.20099H3.20175L8.95332 15.3361L6.79347 19.2558C6.54546 19.7198 6.40147 20.2398 6.40147 20.7998C6.40147 22.5676 7.83342 23.9995 9.60127 23.9995H27.2C28.0836 23.9995 28.7999 23.2832 28.7999 22.3996C28.7999 21.516 28.0836 20.7997 27.2 20.7997H10.2812C10.0572 20.7997 9.8813 20.6237 9.8813 20.3997C9.8813 20.3277 9.89727 20.2638 9.9293 20.2078L11.3612 17.6Z" fill="#FACE50"/>
<path d="M25.5998 25.5993C23.8319 25.5993 22.416 27.0312 22.416 28.7991C22.416 30.567 23.8319 31.9989 25.5998 31.9989C27.3677 31.9989 28.7996 30.567 28.7996 28.7991C28.7996 27.0313 27.3677 25.5993 25.5998 25.5993Z" fill="#FACE50"/>
</svg>
