<svg width="100" height="100" viewBox="0 0 100 100" fill="none" xmlns="http://www.w3.org/2000/svg">
<path d="M85.3516 65.8594C82.9514 65.8594 80.7175 66.4949 78.7163 67.5226L74.7566 62.8168C76.5121 61.7792 78.4111 60.9811 80.4184 60.5318C82.0549 60.1633 83.6769 60.0282 85.3676 60.0031C87.5511 60.0198 89.6996 59.1585 91.3071 57.5655C92.984 55.9061 93.9453 53.5974 93.9453 50.8676C93.9453 35.8629 81.3049 24.8438 67.9588 24.8438H64.6484C63.0295 24.8438 61.7188 26.1545 61.7188 27.7734C61.7188 29.3924 63.0295 30.7031 64.6484 30.7031H67.9588C68.8316 30.7031 69.664 30.8534 70.5078 30.9618V36.6228C68.8065 36.7769 67.2043 37.3033 65.6883 38.009C65.6693 37.9869 65.6448 37.9724 65.6265 37.9503C63.2217 39.0749 61.1488 40.8334 59.6474 43.0856L52.9785 53.0878C52.5208 53.7714 51.7998 54.2322 50.9842 54.3581C45.0531 55.2698 39.9117 59.0509 37.2116 64.5723C39.7141 68.3122 41.2109 72.7678 41.2109 77.5781H35.1562C35.1562 67.885 27.2713 60 17.5781 60C7.88498 60 0 67.885 0 77.5781C0 87.2713 7.88498 95.1562 17.5781 95.1562C25.2068 95.1562 31.6498 90.2429 34.0767 83.4375H61.7188C63.3377 83.4375 64.6484 82.1268 64.6484 80.5078C64.6484 78.8797 64.843 77.2173 65.2237 75.5701C66.0217 72.149 67.8009 69.0355 70.1889 66.4919L74.1432 71.1908C72.0276 73.7306 70.7031 76.9518 70.7031 80.5078C70.7031 88.5843 77.2751 95.1562 85.3516 95.1562C93.428 95.1562 100 88.5843 100 80.5078C100 72.4313 93.428 65.8594 85.3516 65.8594ZM17.5781 89.2969C11.1153 89.2969 5.85938 84.041 5.85938 77.5781C5.85938 71.1153 11.1153 65.8594 17.5781 65.8594C24.041 65.8594 29.2969 71.1153 29.2969 77.5781H20.5078C18.8911 77.5781 17.5781 76.2651 17.5781 74.6484C17.5781 73.0295 16.2674 71.7188 14.6484 71.7188C13.0295 71.7188 11.7188 73.0295 11.7188 74.6484C11.7188 79.4946 15.6616 83.4375 20.5078 83.4375H27.6672C25.6348 86.9234 21.8971 89.2969 17.5781 89.2969ZM85.3516 89.2969C80.5054 89.2969 76.5625 85.354 76.5625 80.5078C76.5625 78.8103 77.0683 77.2379 77.9053 75.892L83.0627 82.3389C84.0813 83.6092 85.9261 83.8007 87.1826 82.7966C88.4445 81.7834 88.6505 79.9417 87.6404 78.6768L82.489 72.2375C83.3908 71.924 84.3437 71.7188 85.3516 71.7188C90.1978 71.7188 94.1406 75.6616 94.1406 80.5078C94.1406 85.354 90.1978 89.2969 85.3516 89.2969Z" fill="#323534"/>
<path d="M49.7529 47.365L54.7723 39.8355C56.3767 37.4277 58.4809 35.4715 60.8712 33.9525C57.6562 31.9223 53.9498 30.7031 50.0001 30.7031C43.0779 30.7031 36.6837 34.2317 32.9202 39.8904L37.6061 42.7026C41.3705 44.9609 45.4926 46.4731 49.7529 47.365Z" fill="#323534"/>
<path d="M34.5909 47.7258L15.7906 36.5625H2.92969C1.31073 36.5625 0 37.8732 0 39.4922C0 47.5687 6.57196 54.1406 14.6484 54.1406C20.5086 54.1406 26.5877 54.268 33.1009 59.9298C33.1261 59.8833 33.1261 59.8306 33.1543 59.7856C35.4271 56.1311 38.636 53.2976 42.3149 51.3063C39.6515 50.332 37.0438 49.1968 34.5909 47.7258Z" fill="#323534"/>
</svg>
