<svg width="40" height="40" viewBox="0 0 40 40" fill="none" xmlns="http://www.w3.org/2000/svg">
<path d="M18.3334 4.16664H19.1667V5.83328C19.1667 6.29391 19.5395 6.66664 20.0001 6.66664C20.4607 6.66664 20.8334 6.29391 20.8334 5.83328V4.16664H21.6668C21.9745 4.16664 22.256 3.99734 22.4009 3.72719C22.5474 3.45539 22.5311 3.12656 22.3602 2.87109L20.6935 0.371094C20.539 0.140157 20.27 0.000234669 20.0009 2.93813e-07C19.7313 -0.000234081 19.4615 0.139766 19.3068 0.371094L17.6402 2.87109C17.4692 3.12664 17.453 3.45539 17.5995 3.72719C17.7441 3.99742 18.0257 4.16664 18.3334 4.16664Z" fill="#FACE50"/>
<path fill-rule="evenodd" clip-rule="evenodd" d="M5.05547 28.8C5.01964 28.8931 5 28.9942 5 29.0999V29.1665C5 30.5451 6.12141 31.6665 7.5 31.6665H17.3633L17.2363 31.7089C16.8962 31.8228 16.6666 32.1418 16.6666 32.4999C16.6666 32.8579 16.8962 33.177 17.2363 33.2909L19.8649 34.1665L17.2363 35.0422C16.8962 35.1561 16.6666 35.4751 16.6666 35.8332C16.6666 36.1912 16.8962 36.5103 17.2363 36.6242L19.8649 37.4999L17.3634 38.3333H7.5C7.03938 38.3333 6.66664 38.706 6.66664 39.1666C6.66664 39.6272 7.03938 39.9999 7.5 39.9999H32.5C32.9606 39.9999 33.3334 39.6272 33.3334 39.1665C33.3334 38.7059 32.9606 38.3332 32.5 38.3332H22.6367L22.7637 38.2908C23.1038 38.1769 23.3334 37.8579 23.3334 37.4998C23.3334 37.1418 23.1038 36.8227 22.7637 36.7088L20.1351 35.8332L22.7637 34.9575C23.1038 34.8436 23.3334 34.5246 23.3334 34.1665C23.3334 33.8085 23.1038 33.4894 22.7637 33.3755L20.1351 32.4999L22.6366 31.6665H32.5C33.8786 31.6665 35 30.5451 35 29.1665V29.0999C35 28.9942 34.9804 28.8931 34.9445 28.8H5.05547Z" fill="#FACE50"/>
<path fill-rule="evenodd" clip-rule="evenodd" d="M30.1812 18.8666C29.49 18.8666 28.8466 19.0474 28.2703 19.3397L27.1299 18.0012C27.6355 17.706 28.1824 17.479 28.7605 17.3512C29.2318 17.2464 29.6989 17.208 30.1858 17.2008C30.8147 17.2056 31.4334 16.9606 31.8964 16.5075C32.3794 16.0355 32.6562 15.3788 32.6562 14.6023C32.6562 10.3343 29.0158 7.19995 25.1721 7.19995H24.2187C23.7525 7.19995 23.375 7.57278 23.375 8.03328C23.375 8.49379 23.7525 8.86662 24.2187 8.86662H25.1721C25.3686 8.86662 25.558 8.89274 25.7474 8.91886C25.8003 8.92616 25.8532 8.93346 25.9062 8.94019V10.5504C25.4162 10.5943 24.9548 10.744 24.5182 10.9447C24.5155 10.9417 24.5125 10.9391 24.5095 10.9366C24.5063 10.9339 24.5031 10.9313 24.5004 10.928C23.8078 11.2479 23.2108 11.7481 22.7784 12.3888L20.8578 15.2338C20.726 15.4282 20.5183 15.5593 20.2834 15.5951C18.5753 15.8545 17.0945 16.93 16.3169 18.5005C17.0376 19.5643 17.4687 20.8317 17.4687 22.2H15.725C15.725 19.4428 13.4541 17.2 10.6625 17.2C7.87085 17.2 5.59998 19.4428 5.59998 22.2C5.59998 24.9571 7.87085 27.2 10.6625 27.2C12.8595 27.2 14.7151 25.8024 15.4141 23.8666H23.375C23.8412 23.8666 24.2187 23.4938 24.2187 23.0333C24.2187 22.5702 24.2748 22.0973 24.3844 21.6288C24.6142 20.6557 25.1266 19.77 25.8144 19.0465L26.9532 20.3831C26.3439 21.1055 25.9625 22.0218 25.9625 23.0333C25.9625 25.3306 27.8552 27.2 30.1812 27.2C32.5073 27.2 34.4 25.3306 34.4 23.0333C34.4 20.736 32.5073 18.8666 30.1812 18.8666ZM10.6625 25.5333C8.80117 25.5333 7.28748 24.0383 7.28748 22.2C7.28748 20.3616 8.80117 18.8666 10.6625 18.8666C12.5238 18.8666 14.0375 20.3616 14.0375 22.2H11.5062C11.0406 22.2 10.6625 21.8265 10.6625 21.3666C10.6625 20.9061 10.285 20.5333 9.81873 20.5333C9.35247 20.5333 8.97498 20.9061 8.97498 21.3666C8.97498 22.7451 10.1105 23.8666 11.5062 23.8666H13.5681C12.9828 24.8582 11.9063 25.5333 10.6625 25.5333ZM30.1812 25.5333C28.7855 25.5333 27.65 24.4118 27.65 23.0333C27.65 22.5504 27.7957 22.1032 28.0367 21.7203L29.522 23.5541C29.8154 23.9154 30.3467 23.9699 30.7086 23.6843C31.072 23.3961 31.1313 22.8723 30.8404 22.5125L29.3568 20.6809C29.6165 20.5917 29.891 20.5333 30.1812 20.5333C31.5769 20.5333 32.7125 21.6548 32.7125 23.0333C32.7125 24.4118 31.5769 25.5333 30.1812 25.5333ZM19.9288 13.606L21.3744 11.4643C21.8364 10.7794 22.4424 10.223 23.1309 9.79088C22.2049 9.21341 21.1375 8.86662 20 8.86662C18.0064 8.86662 16.1649 9.87031 15.0809 11.4799L16.4305 12.2798C17.5146 12.9222 18.7018 13.3523 19.9288 13.606ZM10.1477 10.5333L15.5622 13.7086C16.2686 14.127 17.0196 14.45 17.7867 14.7271C16.7271 15.2935 15.803 16.0995 15.1484 17.139C15.1441 17.1458 15.1421 17.1532 15.14 17.1606C15.1382 17.1672 15.1364 17.1738 15.133 17.18C13.2572 15.5695 11.5064 15.5333 9.81873 15.5333C7.4927 15.5333 5.59998 13.6639 5.59998 11.3666C5.59998 10.9061 5.97747 10.5333 6.44373 10.5333H10.1477Z" fill="#FACE50"/>
</svg>
