<svg width="40" height="40" viewBox="0 0 40 40" fill="none" xmlns="http://www.w3.org/2000/svg">
<path d="M11.0053 17.7945V22.2064C11.0053 22.9383 10.4105 23.5339 9.67777 23.5339H5.26695C4.53417 23.5339 3.93945 22.9383 3.93945 22.2064V17.7945C3.93945 17.0609 4.53417 16.467 5.26695 16.467H9.67777C10.4105 16.467 11.0053 17.0626 11.0053 17.7945ZM34.7302 16.467H15.7002H15.009C14.2771 16.467 13.6815 17.0609 13.6815 17.7945V22.2064C13.6815 22.9383 14.2771 23.5339 15.009 23.5339H15.7002H34.7311C35.4639 23.5339 36.0586 22.9383 36.0586 22.2064V17.7945C36.0577 17.0626 35.4639 16.467 34.7302 16.467ZM9.67777 6.3999H5.26695C4.53417 6.3999 3.93945 6.99375 3.93945 7.72743V12.1393C3.93945 12.8729 4.53417 13.4668 5.26695 13.4668H9.67777C10.4105 13.4668 11.0053 12.8729 11.0053 12.1393V7.72743C11.0053 6.99552 10.4105 6.3999 9.67777 6.3999ZM34.7302 6.3999H15.7002H15.009C14.2771 6.3999 13.6815 6.99375 13.6815 7.72743V12.1393C13.6815 12.8729 14.2771 13.4668 15.009 13.4668H15.7002H34.7311C35.4639 13.4668 36.0586 12.8729 36.0586 12.1393V7.72743C36.0577 6.99552 35.4639 6.3999 34.7302 6.3999ZM9.67777 26.535H5.26695C4.53417 26.535 3.93945 27.1289 3.93945 27.8625V32.2735C3.93945 33.008 4.53417 33.601 5.26695 33.601H9.67777C10.4105 33.601 11.0053 33.008 11.0053 32.2735V27.8625C11.0053 27.1289 10.4105 26.535 9.67777 26.535ZM34.7302 26.535H15.7002H15.009C14.2771 26.535 13.6815 27.1289 13.6815 27.8625V32.2735C13.6815 33.008 14.2771 33.601 15.009 33.601H15.7002H34.7311C35.4639 33.601 36.0586 33.008 36.0586 32.2735V27.8625C36.0577 27.1289 35.4639 26.535 34.7302 26.535Z" fill="#FACE50"/>
</svg>
