<svg width="100" height="100" viewBox="0 0 100 100" fill="none" xmlns="http://www.w3.org/2000/svg">
<g clip-path="url(#clip0)">
<path d="M67.1106 97.2929C69.482 97.2905 71.434 95.4538 72.1477 92.9583C71.7482 93.0224 71.3497 93.0946 70.9367 93.0942L63.2772 93.0942C62.8652 93.0944 62.4683 93.0218 62.0699 92.9579C62.784 95.4552 64.7385 97.2905 67.1106 97.2929Z" fill="#323534"/>
<path d="M70.8067 55.2163L70.8074 46.8262L63.6361 46.8262L63.6368 55.2163L70.8067 55.2163Z" fill="#323534"/>
<path d="M81.5598 55.2164C82.5506 55.2164 83.3538 54.277 83.3542 53.1177L83.3555 48.9248C83.3553 47.7653 82.5525 46.8263 81.5619 46.8262L74.3921 46.8262L74.3916 55.2164L81.5598 55.2164Z" fill="#323534"/>
<path d="M61.7295 88.5492C62.2273 88.7283 62.7315 88.899 63.2757 88.8984L70.939 88.8999C71.484 88.9014 71.9887 88.7309 72.4867 88.5525L72.4867 88.5499C74.4553 87.8396 76.1405 85.5934 76.3003 83.0848C76.3008 83.0767 76.3045 83.0698 76.3049 83.0616L77.8495 59.4106L56.594 59.4106L57.9135 83.0588C58.071 85.6186 59.7533 87.8374 61.7295 88.5492Z" fill="#323534"/>
<path d="M77.9772 42.6317L77.9775 38.4358L75.8766 38.4358C74.8864 38.4358 74.0843 37.4972 74.0843 36.3387C74.0843 35.1799 74.8862 34.2415 75.8766 34.2415L77.9778 34.2415L77.9781 30.0471H75.8766C74.8864 30.0471 74.0843 29.1085 74.0843 27.9499C74.0843 26.7911 74.8862 25.8527 75.8766 25.8527L77.9785 25.8527L77.9785 23.7527C77.9748 20.2868 75.5635 17.4655 72.6002 17.4626L69.0143 17.4622L69.0143 15.3639C69.0143 14.2053 68.2121 13.2667 67.2219 13.2667C66.2316 13.2667 65.4296 14.2051 65.4296 15.3639L65.4296 17.4614L61.8424 17.4611C61.2073 17.4617 60.6172 17.6488 60.0514 17.8873L60.0514 15.3654C60.0526 11.8995 62.465 9.07673 65.4296 9.07248L69.0143 9.07248C70.0045 9.07248 70.8066 8.13388 70.8066 6.97529C70.8066 5.8167 70.0045 4.8781 69.0143 4.8781L65.4296 4.8781C60.4881 4.8781 56.4667 9.58355 56.4667 15.3654C56.4667 20.0399 56.4667 21.1783 56.4667 25.8528L58.5672 25.8528C59.5574 25.8528 60.3595 26.7914 60.3595 27.95C60.3595 29.1086 59.5574 30.0472 58.5672 30.0472L56.4667 30.0472L56.4667 34.2416L58.5672 34.2416C59.5574 34.2416 60.3595 35.1802 60.3595 36.3388C60.3595 37.4973 59.5574 38.4359 58.5672 38.4359L56.4667 38.4359L56.4667 42.6317H77.9772Z" fill="#323534"/>
<path d="M52.8832 55.2163L60.0522 55.2163L60.0516 46.826L52.8807 46.826C51.8911 46.826 51.089 47.7653 51.0896 48.9232L51.0896 53.1176C51.0896 54.2766 51.8926 55.2162 52.8832 55.2163Z" fill="#323534"/>
<path d="M36.2653 44.4408L20.7414 37.1849L20.7415 28.0725L36.2654 35.3285L36.2653 44.4408Z" fill="#323534"/>
<path d="M36.2654 71.9273L20.7415 64.6713L20.7414 55.559L36.2653 62.815L36.2654 71.9273Z" fill="#323534"/>
<path d="M36.2655 58.1844L20.7417 50.9283L20.7416 41.816L36.2655 49.072V58.1844Z" fill="#323534"/>
<path d="M36.2654 81.8888L37.9284 81.8888C39.0868 81.8887 40.026 82.8279 40.026 83.9864C40.026 85.1449 39.0869 86.084 37.9284 86.084L35.3939 86.084C35.9493 87.1528 36.2654 88.3652 36.2653 89.6508C36.2654 93.9307 32.7834 97.4127 28.5032 97.4128C26.3633 97.4127 24.4228 96.5423 23.0172 95.1368C21.6117 93.7313 20.7413 91.7907 20.7412 89.6508C20.7412 88.3653 21.0572 87.1528 21.6127 86.0841L19.0782 86.0841C18.4989 86.0841 17.9744 85.8493 17.5949 85.4698C17.2154 85.0903 16.9805 84.5658 16.9807 83.9866C16.9807 82.8281 17.9198 81.889 19.0783 81.889L20.7413 81.889L20.7413 69.3025L36.2655 76.5584L36.2654 81.8888ZM24.9367 89.6509C24.9368 91.6175 26.5368 93.2176 28.5034 93.2177C30.4702 93.2177 32.0702 91.6176 32.0702 89.6509C32.0702 88.6674 31.6703 87.7759 31.0243 87.1299C30.3789 86.4845 29.4878 86.0846 28.5053 86.084L28.5016 86.084C26.5358 86.0852 24.9367 87.6847 24.9367 89.6509Z" fill="#323534"/>
<path d="M28.5034 2.58735C32.7833 2.58745 36.2654 6.0695 36.2655 10.3494C36.2655 11.6349 35.9494 12.8474 35.3939 13.9161L37.9285 13.9161C39.0869 13.916 40.0261 14.8552 40.0261 16.0137C40.0261 17.1722 39.087 18.1113 37.9285 18.1113L36.2655 18.1113L36.2655 30.6978L20.7415 23.4418L20.7415 18.1113L19.0785 18.1113C18.4993 18.1113 17.9748 17.8766 17.5953 17.497C17.2158 17.1175 16.9808 16.5931 16.981 16.0138C16.981 14.8553 17.9201 13.9162 19.0786 13.9162L21.6132 13.9162C21.0577 12.8473 20.7415 11.6349 20.7415 10.3494C20.7414 6.0695 24.2235 2.58745 28.5034 2.58735ZM24.9366 10.3493C24.9366 12.3155 26.5356 13.9151 28.5014 13.9161L28.5052 13.9161C30.4711 13.915 32.0701 12.3154 32.0701 10.3494C32.0701 9.36594 31.6701 8.47452 31.0241 7.82852C30.3783 7.18272 29.4865 6.78274 28.5033 6.78264C26.5367 6.78264 24.9367 8.38265 24.9366 10.3493Z" fill="#323534"/>
</g>
<defs>
<clipPath id="clip0">
<rect width="100" height="100" fill="white" transform="matrix(-1 0 0 1 100 0)"/>
</clipPath>
</defs>
</svg>
