<svg width="100" height="100" viewBox="0 0 100 100" fill="none" xmlns="http://www.w3.org/2000/svg">
<g clip-path="url(#clip0)">
<path d="M85.3516 55.8594C82.9514 55.8594 80.7175 56.4949 78.7163 57.5226L74.7566 52.8168C76.5121 51.7792 78.4111 50.9811 80.4184 50.5318C82.0549 50.1633 83.6769 50.0282 85.3676 50.0031C87.5511 50.0198 89.6996 49.1585 91.3071 47.5655C92.984 45.9061 93.9453 43.5974 93.9453 40.8676C93.9453 25.8629 81.3049 14.8438 67.9588 14.8438H64.6484C63.0295 14.8438 61.7188 16.1545 61.7188 17.7734C61.7188 19.3924 63.0295 20.7031 64.6484 20.7031H67.9588C68.8316 20.7031 69.664 20.8534 70.5078 20.9618V26.6228C68.8065 26.7769 67.2043 27.3033 65.6883 28.009C65.6693 27.9869 65.6448 27.9724 65.6265 27.9503C63.2217 29.0749 61.1488 30.8334 59.6474 33.0856L52.9785 43.0878C52.5208 43.7714 51.7998 44.2322 50.9842 44.3581C45.0531 45.2698 39.9117 49.0509 37.2116 54.5723C39.7141 58.3122 41.2109 62.7678 41.2109 67.5781H35.1562C35.1562 57.885 27.2713 50 17.5781 50C7.88498 50 0 57.885 0 67.5781C0 77.2713 7.88498 85.1562 17.5781 85.1562C25.2068 85.1562 31.6498 80.2429 34.0767 73.4375H61.7188C63.3377 73.4375 64.6484 72.1268 64.6484 70.5078C64.6484 68.8797 64.843 67.2173 65.2237 65.5701C66.0217 62.149 67.8009 59.0355 70.1889 56.4919L74.1432 61.1908C72.0276 63.7306 70.7031 66.9518 70.7031 70.5078C70.7031 78.5843 77.2751 85.1562 85.3516 85.1562C93.428 85.1562 100 78.5843 100 70.5078C100 62.4313 93.428 55.8594 85.3516 55.8594ZM17.5781 79.2969C11.1153 79.2969 5.85938 74.041 5.85938 67.5781C5.85938 61.1153 11.1153 55.8594 17.5781 55.8594C24.041 55.8594 29.2969 61.1153 29.2969 67.5781H20.5078C18.8911 67.5781 17.5781 66.2651 17.5781 64.6484C17.5781 63.0295 16.2674 61.7188 14.6484 61.7188C13.0295 61.7188 11.7188 63.0295 11.7188 64.6484C11.7188 69.4946 15.6616 73.4375 20.5078 73.4375H27.6672C25.6348 76.9234 21.8971 79.2969 17.5781 79.2969ZM85.3516 79.2969C80.5054 79.2969 76.5625 75.354 76.5625 70.5078C76.5625 68.8103 77.0683 67.2379 77.9053 65.892L83.0627 72.3389C84.0813 73.6092 85.9261 73.8007 87.1826 72.7966C88.4445 71.7834 88.6505 69.9417 87.6404 68.6768L82.489 62.2375C83.3908 61.924 84.3437 61.7188 85.3516 61.7188C90.1978 61.7188 94.1406 65.6616 94.1406 70.5078C94.1406 75.354 90.1978 79.2969 85.3516 79.2969Z" fill="#323534"/>
<path d="M49.7528 37.365L54.7722 29.8355C56.3766 27.4277 58.4808 25.4715 60.8711 23.9525C57.6561 21.9223 53.9497 20.7031 50 20.7031C43.0779 20.7031 36.6837 24.2317 32.9201 29.8904L37.606 32.7026C41.3704 34.9609 45.4926 36.4731 49.7528 37.365Z" fill="#323534"/>
<path d="M34.5909 37.7258L15.7906 26.5625H2.92969C1.31073 26.5625 0 27.8732 0 29.4922C0 37.5687 6.57196 44.1406 14.6484 44.1406C20.5086 44.1406 26.5877 44.268 33.1009 49.9298C33.1261 49.8833 33.1261 49.8306 33.1543 49.7856C35.4271 46.1311 38.636 43.2976 42.3149 41.3063C39.6515 40.332 37.0438 39.1968 34.5909 37.7258Z" fill="#323534"/>
</g>
<defs>
<clipPath id="clip0">
<rect width="100" height="100" fill="white"/>
</clipPath>
</defs>
</svg>
