<svg width="100" height="100" viewBox="0 0 100 100" fill="none" xmlns="http://www.w3.org/2000/svg">
<g clip-path="url(#clip0)">
<path d="M97.9199 72.0838L62.6103 12.9426C59.941 8.4488 55.2265 5.76501 49.9996 5.76501C44.7726 5.76501 40.0582 8.4488 37.3888 12.9426L2.08239 72.0838C-0.644168 76.672 -0.69573 82.1826 1.94196 86.8224C4.58572 91.4652 9.34861 94.2347 14.69 94.2347H85.3092C90.6506 94.2347 95.4138 91.4652 98.0572 86.8224C100.695 82.1828 100.644 76.672 97.9199 72.0838ZM49.9998 23.8465C53.2394 23.8465 55.8654 26.4724 55.8654 29.7121V53.175C55.8654 56.4142 53.2394 59.0406 49.9998 59.0406C46.7601 59.0406 44.1342 56.414 44.1342 53.175V29.7121C44.134 26.4724 46.7601 23.8465 49.9998 23.8465ZM49.9998 82.5033C45.148 82.5033 41.2011 78.5564 41.2011 73.7047C41.2011 68.8529 45.148 64.906 49.9998 64.906C54.8515 64.906 58.7984 68.8529 58.7984 73.7047C58.7982 78.5566 54.8515 82.5033 49.9998 82.5033Z" fill="#323534"/>
</g>
<defs>
<clipPath id="clip0">
<rect width="100" height="100" fill="white"/>
</clipPath>
</defs>
</svg>
