<svg width="40" height="40" viewBox="0 0 40 40" fill="none" xmlns="http://www.w3.org/2000/svg">
<path d="M35.8995 18.2234C35.849 17.7736 35.3243 17.4353 34.8707 17.4353C33.4046 17.4353 32.1034 16.5748 31.5578 15.2429C31.0007 13.8791 31.3601 12.2888 32.4525 11.2867C32.7965 10.9722 32.8384 10.4454 32.55 10.0798C31.7994 9.12686 30.9466 8.26593 30.0153 7.51987C29.6509 7.22759 29.1154 7.26827 28.7992 7.61826C27.8456 8.67446 26.1324 9.06694 24.8086 8.51462C23.4315 7.93518 22.5622 6.53923 22.6476 5.04088C22.6757 4.56993 22.3314 4.16071 21.8621 4.10605C20.6668 3.96766 19.461 3.96364 18.2623 4.09664C17.799 4.14784 17.4549 4.54738 17.4703 5.01237C17.5222 6.49605 16.6431 7.86737 15.2793 8.42605C13.9713 8.96038 12.2701 8.57081 11.3184 7.52388C11.0038 7.17901 10.4778 7.13667 10.1109 7.42272C9.15217 8.17515 8.28017 9.03663 7.52262 9.98184C7.22744 10.3493 7.27103 10.8818 7.61797 11.1975C8.73188 12.2062 9.091 13.8101 8.51267 15.1899C7.96049 16.5053 6.59471 17.3527 5.03131 17.3527C4.52397 17.3363 4.16291 17.6772 4.10687 18.1386C3.96626 19.3402 3.96474 20.5653 4.10008 21.7767C4.1506 22.2284 4.69074 22.5639 5.14936 22.5639C6.54296 22.5285 7.88009 23.3906 8.44181 24.7561C9.00077 26.12 8.64096 27.7095 7.54684 28.713C7.2046 29.0276 7.16087 29.553 7.44983 29.9183C8.19285 30.8653 9.04644 31.7267 9.98058 32.4792C10.3473 32.7745 10.8807 32.7331 11.1986 32.3827C12.1559 31.324 13.8688 30.9322 15.1873 31.4857C16.5684 32.0636 17.4372 33.4594 17.3524 34.9582C17.3246 35.4291 17.6697 35.8396 18.1373 35.893C18.749 35.9645 19.3639 36 19.9807 36C20.5661 36 21.1516 35.968 21.7371 35.9028C22.201 35.8516 22.5445 35.4517 22.5289 34.9865C22.4753 33.5035 23.3563 32.1321 24.7185 31.5745C26.0351 31.0367 27.7288 31.4303 28.681 32.4757C28.9973 32.8199 29.5201 32.8617 29.8885 32.5767C30.8456 31.8262 31.7159 30.9652 32.4768 30.0175C32.7723 29.6507 32.7303 29.1175 32.3815 28.8013C31.2678 27.7933 30.9068 26.1886 31.4851 24.8103C32.0287 23.5126 33.3437 22.6413 34.758 22.6413L34.9559 22.6465C35.4151 22.6837 35.8371 22.3302 35.8926 21.8617C36.0339 20.659 36.0354 19.4353 35.8995 18.2234ZM19.9999 29.2241C14.9053 29.2241 10.7756 25.0944 10.7756 19.9999C10.7756 14.9055 14.9055 10.7758 19.9999 10.7758C25.0944 10.7758 29.2242 14.9055 29.2242 19.9999C29.2242 21.7291 28.7475 23.3465 27.9195 24.7296L23.8804 20.6904C24.1728 20.0009 24.3273 19.2535 24.3271 18.4821C24.3271 16.9715 23.7388 15.5515 22.6706 14.4835C21.6026 13.4156 20.1826 12.8274 18.6723 12.8274C18.1683 12.8274 17.6667 12.8944 17.1813 13.0266C16.9688 13.0846 16.7949 13.2598 16.7383 13.4727C16.6805 13.6906 16.7457 13.9138 16.9159 14.0842C16.9159 14.0842 18.91 16.0936 19.5771 16.7606C19.647 16.8305 19.6469 16.9973 19.6371 17.0573L19.6308 17.1012C19.5636 17.8347 19.4339 18.7151 19.3269 19.0535C19.3125 19.0677 19.299 19.0798 19.2843 19.0944C19.2689 19.1098 19.2548 19.1246 19.24 19.1398C18.8972 19.2499 18.0032 19.3811 17.2581 19.4478L17.2583 19.4437L17.2248 19.4522C17.2188 19.4529 17.2078 19.4537 17.1931 19.4537C17.1125 19.4537 16.9941 19.4312 16.8864 19.3236C16.192 18.6292 14.2761 16.727 14.2761 16.727C14.1042 16.5557 13.9279 16.5197 13.8104 16.5197C13.5365 16.5197 13.2913 16.7176 13.2141 17.0014C12.6867 18.9531 13.2458 21.0525 14.6735 22.4805C15.7418 23.5485 17.1619 24.1367 18.6725 24.1367C19.4439 24.1367 20.1913 23.9824 20.8806 23.69L24.9636 27.7729C23.5301 28.6902 21.8279 29.2241 19.9999 29.2241Z" fill="#FACE50"/>
</svg>
