<svg width="40" height="40" viewBox="0 0 40 40" fill="none" xmlns="http://www.w3.org/2000/svg">
<path d="M29.0605 24.5762C28.7584 24.4149 28.5698 24.1003 28.5698 23.7575V22.8288H22.0693C21.5562 22.8288 21.1406 22.4135 21.1406 21.9002V18.1856C21.1406 17.6723 21.5562 17.2569 22.0693 17.2569H28.5698V16.3283C28.5698 15.9853 28.7584 15.6707 29.0605 15.5093C29.3617 15.3488 29.7289 15.3669 30.0139 15.5556L35.5858 19.2702C35.8442 19.4424 35.9992 19.7326 35.9992 20.0429C35.9992 20.3528 35.8442 20.643 35.5858 20.8154L30.0139 24.53C29.7258 24.7221 29.3584 24.736 29.0605 24.5762Z" fill="#FACE50"/>
<path d="M26.7141 5.06048V15.3994H22.0709C21.7367 15.3994 21.4394 15.455 21.1422 15.5664V10.6324C21.1422 9.5921 20.5665 8.64507 19.6009 8.1436L11.5957 4.13184H25.7855C26.3057 4.13184 26.7141 4.54025 26.7141 5.06048Z" fill="#FACE50"/>
<path d="M22.0693 24.6862H26.7125V31.1866C26.7125 31.7068 26.3041 32.1152 25.7839 32.1152H21.1406V24.519C21.4378 24.6305 21.7352 24.6862 22.0693 24.6862Z" fill="#FACE50"/>
<path d="M18.7644 9.79669L7.62046 4.22479C7.34206 4.09459 6.98898 4.09459 6.72895 4.26194C6.45055 4.44748 6.2832 4.74464 6.2832 5.06058V31.1864C6.2832 31.5952 6.54322 31.9481 6.91488 32.0595L18.0587 35.7741C18.3322 35.8836 18.6824 35.8217 18.8943 35.6627C19.1359 35.4769 19.2845 35.1983 19.2845 34.9014V10.6325C19.2843 10.2796 19.0802 9.96365 18.7644 9.79669ZM15.5697 21.9001C15.5697 22.4199 15.1613 22.8287 14.641 22.8287C14.1212 22.8287 13.7124 22.4199 13.7124 21.9001V18.1855C13.7124 17.6654 14.1212 17.2568 14.641 17.2568C15.1613 17.2568 15.5697 17.6654 15.5697 18.1855V21.9001Z" fill="#FACE50"/>
</svg>
