<svg width="100" height="100" viewBox="0 0 100 100" fill="none" xmlns="http://www.w3.org/2000/svg">
<path d="M42.1875 50.1953C53.0212 50.1953 61.9186 58.6395 62.6457 69.2924L68.322 66.2109H85.1562C93.3411 66.2109 100 59.552 100 51.3672C100 43.1823 93.3411 36.5234 85.1562 36.5234H66.8388L58.5167 28.202L54.3739 32.3448L60.8414 38.8122L51.1749 44.3359H11.7188V50.4051C12.6762 50.2678 13.6536 50.1953 14.6484 50.1953H42.1875Z" fill="#323534"/>
<path d="M42.1875 56.0547H14.6484C6.5712 56.0547 0 62.6259 0 70.7031C0 78.7804 6.5712 85.3516 14.6484 85.3516H42.1875C50.2647 85.3516 56.8359 78.7804 56.8359 70.7031C56.8359 62.6259 50.2647 56.0547 42.1875 56.0547ZM14.6484 73.6328C13.0302 73.6328 11.7188 72.3213 11.7188 70.7031C11.7188 69.0849 13.0302 67.7734 14.6484 67.7734C16.2666 67.7734 17.5781 69.0849 17.5781 70.7031C17.5781 72.3213 16.2666 73.6328 14.6484 73.6328ZM42.1875 73.6328C40.5693 73.6328 39.2578 72.3213 39.2578 70.7031C39.2578 69.0849 40.5693 67.7734 42.1875 67.7734C43.8057 67.7734 45.1172 69.0849 45.1172 70.7031C45.1172 72.3213 43.8057 73.6328 42.1875 73.6328Z" fill="#323534"/>
<path d="M66.7969 14.4531H63.8672V30.6641H84.3224C83.622 21.608 76.0292 14.4531 66.7969 14.4531Z" fill="#323534"/>
<path d="M86.3213 79.4373L83.3138 72.0703H69.8097L66.0904 74.0891L68.2961 79.4922H59.7656V85.3516H85.3516C93.4288 85.3516 100 78.7804 100 70.7031H94.1406C94.1406 75.222 90.7127 78.9528 86.3213 79.4373Z" fill="#323534"/>
<path d="M40.039 30.6641H39.6286L37.4031 31.3004C34.655 32.0847 31.7505 32.0847 29.0031 31.3004L26.7776 30.6641H26.3672C21.8513 30.6641 18.1213 34.0881 17.6338 38.4766H48.7724C48.2849 34.0881 44.5549 30.6641 40.039 30.6641Z" fill="#323534"/>
</svg>
