<svg width="100" height="100" viewBox="0 0 100 100" fill="none" xmlns="http://www.w3.org/2000/svg">
<path d="M85.1562 39.5508C85.1562 38.8045 84.8715 38.0863 84.36 37.5428L60.9225 12.6404C60.3688 12.0523 59.5969 11.7188 58.7891 11.7188H29.4922C28.6555 11.7188 27.8586 12.0766 27.3025 12.702L15.5838 25.8855C15.1072 26.4219 14.8438 27.1145 14.8438 27.832V79.4922C14.8438 81.741 15.6928 83.7955 17.0871 85.3516C15.6928 86.9076 14.8438 88.9621 14.8438 91.2109C14.8438 96.0572 18.7865 100 23.6328 100H76.3672C81.2135 100 85.1562 96.0572 85.1562 91.2109C85.1562 88.9621 84.3072 86.9076 82.9129 85.3516C84.3074 83.7955 85.1562 81.741 85.1562 79.4922V39.5508ZM50 82.4211C45.1537 82.4211 41.2109 78.4783 41.2109 73.632C41.2109 72.4254 41.5557 70.227 44.5361 65.0891C46.0416 62.4938 47.527 60.3387 47.5895 60.2482C48.1365 59.4564 49.0375 58.9836 50 58.9836C50.9625 58.9836 51.8635 59.4563 52.4105 60.2482C52.473 60.3387 53.9584 62.4938 55.4639 65.0891C58.4443 70.2271 58.7891 72.4254 58.7891 73.632C58.7891 78.4783 54.8463 82.4211 50 82.4211ZM71.5971 47.8572C70.4641 48.9244 69.0221 49.4508 67.5803 49.4508C66.0211 49.4508 64.4674 48.8328 63.3145 47.6082L49.859 33.3117C47.6389 30.9543 47.7533 27.2463 50.1078 25.0291C52.4682 22.8117 56.1789 22.9234 58.3904 25.2779L71.8459 39.5744C74.066 41.932 73.9516 45.6398 71.5971 47.8572Z" fill="#323534"/>
<path d="M47.0703 73.6356C47.0703 75.2477 48.3846 76.5619 50 76.5619C51.6146 76.5619 52.9283 75.2489 52.9297 73.6346C52.9047 72.7358 51.6869 70.1838 50.0006 67.3434C48.3129 70.1867 47.0941 72.7399 47.0703 73.6356Z" fill="#323534"/>
<path d="M47.0703 0H29.4922C27.8742 0 26.5625 1.31172 26.5625 2.92969V5.85938H50V2.92969C50 1.31172 48.6883 0 47.0703 0Z" fill="#323534"/>
</svg>
