<svg width="20" height="20" viewBox="0 0 20 20" fill="none" xmlns="http://www.w3.org/2000/svg">
<g clip-path="url(#clip0)">
<path d="M19.584 14.4168L12.5221 2.58858C11.9882 1.68983 11.0453 1.15308 9.99993 1.15308C8.95454 1.15308 8.01165 1.68983 7.47778 2.58858L0.416491 14.4168C-0.128821 15.3345 -0.139134 16.4366 0.388405 17.3646C0.917155 18.2931 1.86973 18.847 2.93801 18.847H17.0618C18.1301 18.847 19.0828 18.2931 19.6115 17.3646C20.1391 16.4366 20.1288 15.3345 19.584 14.4168ZM9.99997 4.76937C10.6479 4.76937 11.1731 5.29456 11.1731 5.94249V10.6351C11.1731 11.2829 10.6479 11.8082 9.99997 11.8082C9.35204 11.8082 8.82684 11.2829 8.82684 10.6351V5.94249C8.8268 5.29456 9.35204 4.76937 9.99997 4.76937ZM9.99997 16.5007C9.02962 16.5007 8.24024 15.7114 8.24024 14.741C8.24024 13.7707 9.02962 12.9813 9.99997 12.9813C10.9703 12.9813 11.7597 13.7707 11.7597 14.741C11.7597 15.7114 10.9703 16.5007 9.99997 16.5007Z" fill="#FACE50"/>
</g>
<defs>
<clipPath id="clip0">
<rect width="20" height="20" fill="white"/>
</clipPath>
</defs>
</svg>
