<svg width="40" height="40" viewBox="0 0 40 40" fill="none" xmlns="http://www.w3.org/2000/svg">
<path d="M13.6017 29.5991C11.8339 29.5991 10.418 31.031 10.418 32.7989C10.418 34.5668 11.8339 35.9987 13.6017 35.9987C15.3696 35.9987 16.8015 34.5668 16.8015 32.7989C16.8015 31.031 15.3696 29.5991 13.6017 29.5991Z" fill="#FACE50"/>
<path d="M15.3612 21.5998H27.2803C28.4802 21.5998 29.5281 20.9358 30.0801 19.9519L35.7997 9.56858C35.9277 9.34457 35.9997 9.08059 35.9997 8.80063C35.9997 7.9127 35.2798 7.20077 34.3998 7.20077H10.7455L9.39911 4.36635C9.29311 4.14319 9.06812 4.00098 8.82106 4.00098H5.60184C4.71825 4.00098 4.00195 4.71728 4.00195 5.60088C4.00195 6.48447 4.71825 7.20077 5.60184 7.20077H7.20175L12.9533 19.3359L10.7935 23.2556C10.5455 23.7196 10.4015 24.2396 10.4015 24.7995C10.4015 26.5674 11.8334 27.9993 13.6013 27.9993H31.2C32.0836 27.9993 32.7999 27.283 32.7999 26.3994C32.7999 25.5158 32.0836 24.7995 31.2 24.7995H14.2812C14.0572 24.7995 13.8813 24.6235 13.8813 24.3995C13.8813 24.3275 13.8973 24.2636 13.9293 24.2075L15.3612 21.5998Z" fill="#FACE50"/>
<path d="M29.5998 29.5991C27.8319 29.5991 26.416 31.031 26.416 32.7989C26.416 34.5668 27.8319 35.9987 29.5998 35.9987C31.3677 35.9987 32.7996 34.5668 32.7996 32.7989C32.7996 31.0311 31.3677 29.5991 29.5998 29.5991Z" fill="#FACE50"/>
</svg>
