<svg width="101" height="100" viewBox="0 0 101 100" fill="none" xmlns="http://www.w3.org/2000/svg">
<path d="M34.004 73.9982C29.5844 73.9982 26.0446 77.5779 26.0446 81.9977C26.0446 86.4175 29.5844 89.9972 34.004 89.9972C38.4236 89.9972 42.0035 86.4175 42.0035 81.9977C42.0035 77.5779 38.4236 73.9982 34.004 73.9982Z" fill="#323534"/>
<path d="M38.4037 53.9997H68.2015C71.2013 53.9997 73.821 52.3399 75.2009 49.8801L89.5 23.9218C89.82 23.3618 90 22.7018 90 22.002C90 19.7821 88.2001 18.0023 86.0004 18.0023H26.8644L23.4985 10.9162C23.2335 10.3583 22.671 10.0028 22.0534 10.0028H14.0053C11.7963 10.0028 10.0056 11.7936 10.0056 14.0026C10.0056 16.2115 11.7964 18.0023 14.0053 18.0023H18.0051L32.384 48.3401L26.9844 58.1395C26.3644 59.2994 26.0044 60.5993 26.0044 61.9992C26.0044 66.4189 29.5843 69.9985 34.0039 69.9985H78.0008C80.2098 69.9985 82.0005 68.2078 82.0005 65.9988C82.0005 63.7898 80.2098 61.9991 78.0008 61.9991H35.7039C35.1438 61.9991 34.704 61.559 34.704 60.9992C34.704 60.8192 34.7439 60.6593 34.824 60.5192L38.4037 53.9997Z" fill="#323534"/>
<path d="M74.0011 73.9982C69.5815 73.9982 66.0417 77.5779 66.0417 81.9977C66.0417 86.4175 69.5815 89.9972 74.0011 89.9972C78.4209 89.9972 82.0006 86.4173 82.0006 81.9977C82.0006 77.578 78.4209 73.9982 74.0011 73.9982Z" fill="#323534"/>
</svg>
