<svg width="17" height="19" viewBox="0 0 17 19" fill="none" xmlns="http://www.w3.org/2000/svg">
<path fill-rule="evenodd" clip-rule="evenodd" d="M16.7181 7.52794C16.0092 3.546 12.7011 0.87303 8.67338 0.76019C8.65077 0.760094 8.62814 0.759729 8.60552 0.759364C8.55014 0.758471 8.49478 0.757578 8.43965 0.760632C8.15408 0.775964 7.90093 1.01477 7.95443 1.31468C8.01466 1.6526 8.35434 1.68685 8.63435 1.71509L8.68287 1.72005C8.82446 1.7349 8.9665 1.74718 9.10854 1.75945C9.42319 1.78663 9.73782 1.81382 10.0474 1.86907C13.0339 2.40172 15.4264 4.88398 15.8433 7.88433C15.9063 8.33768 15.9374 8.79566 15.9684 9.25328L15.9684 9.25336C15.9763 9.36946 15.9841 9.48555 15.9925 9.60153C16.0135 9.89107 16.1588 10.1612 16.4816 10.1573C16.7942 10.1536 16.9582 9.87839 16.9356 9.58873C16.9291 9.50475 16.9227 9.42069 16.9163 9.33659L16.9162 9.33532L16.9161 9.33405C16.8701 8.72943 16.824 8.12284 16.7181 7.52794ZM13.096 18.1504L13.0963 18.1504L13.0968 18.1506C13.2013 18.1794 13.3076 18.2087 13.4156 18.2415C13.5078 18.2131 13.6018 18.1892 13.6953 18.1654L13.6954 18.1653C13.898 18.1138 14.0986 18.0627 14.2757 17.9677C15.1925 17.4752 15.8281 16.7036 16.2649 15.7762C16.5034 15.2698 16.3575 14.7803 15.9338 14.4071C15.5235 14.0458 15.0828 13.7321 14.6383 13.4158L14.5398 13.3457C14.0532 12.9989 13.5635 12.6557 13.0585 12.3361C12.5535 12.0165 11.9544 12.0216 11.4857 12.4049C11.3164 12.5434 11.1792 12.7265 11.0426 12.909C10.792 13.2435 10.5429 13.5761 10.1 13.6278C9.72774 13.6713 9.39894 13.5325 9.07517 13.3959L9.07512 13.3959C9.04349 13.3825 9.01191 13.3692 8.98034 13.3561C6.76347 12.4336 5.41259 10.7209 4.61113 8.51839C4.507 8.23226 4.51472 7.92187 4.67643 7.65869C4.76489 7.51485 4.88634 7.40753 5.01539 7.30131C5.04427 7.27752 5.07302 7.25355 5.10177 7.22957L5.10185 7.22951L5.10186 7.2295C5.21962 7.13132 5.33751 7.03304 5.46443 6.94679C6.11434 6.50525 6.21273 5.71217 5.85413 5.06337C5.27096 4.00854 4.55079 3.05199 3.76676 2.142C3.40408 1.72108 2.91423 1.58353 2.41764 1.82212C1.78142 2.12777 1.19394 2.54251 0.7374 3.08442C0.250853 3.66186 -0.211206 4.45361 0.102496 5.22L0.209034 5.4807C0.516972 6.23491 0.825451 6.99044 1.18457 7.72035C2.02916 9.43688 3.02828 11.0589 4.30482 12.4956C6.54959 15.0221 9.3835 16.6702 12.4627 17.9477C12.6641 18.0313 12.8759 18.0897 13.096 18.1504ZM14.7942 8.69614C14.7925 8.70885 14.791 8.7259 14.7893 8.74609C14.7841 8.80577 14.7766 8.89284 14.7546 8.97609C14.6477 9.38046 14.0346 9.43108 13.8934 9.02296C13.8516 8.90185 13.8454 8.76408 13.8451 8.63371C13.8437 7.78062 13.6583 6.92842 13.2281 6.18619C12.7859 5.42334 12.1103 4.78204 11.3179 4.39399C10.8387 4.15938 10.3205 4.01356 9.79536 3.92664C9.65245 3.90301 9.5086 3.88516 9.36471 3.8673L9.36466 3.8673C9.27746 3.85648 9.19024 3.84565 9.10321 3.83354C8.8237 3.79471 8.67446 3.61657 8.6877 3.34115C8.70005 3.08304 8.88867 2.8974 9.16994 2.91328C10.0943 2.96579 10.9871 3.16555 11.8088 3.60069C13.4799 4.48565 14.4345 5.88253 14.7131 7.74775C14.7176 7.77798 14.7231 7.80812 14.7286 7.83823L14.7286 7.83827C14.7384 7.89232 14.7483 7.94633 14.7524 8.00079C14.7635 8.14802 14.7717 8.29536 14.7811 8.46584L14.7811 8.46587C14.7852 8.53791 14.7894 8.61409 14.7942 8.69614ZM11.7371 8.10792C11.7718 8.41688 11.9522 8.6034 12.2891 8.59734C12.4426 8.58697 12.5999 8.48053 12.6492 8.26808C12.677 8.14793 12.6655 8.01558 12.6545 7.88955L12.6535 7.87717C12.4942 6.03886 11.3781 5.23155 9.81658 5.11882C9.56674 5.10073 9.34426 5.2792 9.30599 5.50786C9.26385 5.75913 9.41199 5.97599 9.6798 6.04162C9.79537 6.06994 9.91313 6.08068 10.0311 6.09144C10.1649 6.10364 10.2989 6.11587 10.4303 6.15379C10.6249 6.20994 10.8106 6.29697 10.9745 6.41643C11.3218 6.66935 11.5412 7.05188 11.6424 7.46464C11.6867 7.64501 11.707 7.83185 11.7272 8.01776C11.7304 8.04785 11.7337 8.07791 11.7371 8.10792Z" fill="#323534"/>
</svg>
