<svg width="100" height="100" viewBox="0 0 100 100" fill="none" xmlns="http://www.w3.org/2000/svg">
<path d="M63.0652 44.054V64.0359L90.2772 77.6419C91.9919 78.4994 94.0092 77.2526 94.0092 75.3356V47.9223L63.0652 44.054Z" fill="#323534"/>
<path d="M55.649 43.1271C54.0411 42.9753 52.7506 44.1525 52.7506 45.6856V57.2846C52.7506 58.2693 53.2971 59.1531 54.1759 59.5913L57.9079 61.4573V43.4094L55.649 43.1271Z" fill="#323534"/>
<path d="M47.5932 57.2859V45.6854C47.5932 40.9889 51.7411 37.423 56.2887 38.0099L93.6328 42.6783C91.6494 31.1298 84.9323 20.4062 74.8606 13.6497C63.9214 6.31153 50.1007 4.12069 37.2476 7.65123C20.1086 12.3528 5.99075 31.523 5.99075 49.9589V62.3083C5.99075 65.3327 7.77106 68.0977 10.6067 69.3871L67.5528 92.8621C75.1415 96.0073 83.9547 92.4397 87.0893 84.5393C87.3623 83.8537 87.6518 82.9985 87.9348 82.2373L51.8692 64.2045C49.2487 62.8942 47.5932 60.2156 47.5932 57.2859ZM26.792 63.0511C21.1033 63.0511 16.4773 58.4252 16.4773 52.7365C16.4773 47.0477 21.1033 42.4218 26.792 42.4218C32.4807 42.4218 37.1067 47.0477 37.1067 52.7365C37.1067 58.4252 32.4807 63.0511 26.792 63.0511Z" fill="#323534"/>
<path d="M26.792 47.5792C23.9489 47.5792 21.6347 49.8935 21.6347 52.7366C21.6347 55.5796 23.9489 57.8939 26.792 57.8939C29.6351 57.8939 31.9493 55.5796 31.9493 52.7366C31.9493 49.8935 29.6351 47.5792 26.792 47.5792Z" fill="#323534"/>
</svg>
