<svg width="40" height="40" viewBox="0 0 40 40" fill="none" xmlns="http://www.w3.org/2000/svg">
<path d="M20.8633 32.371C20.7492 32.1264 20.5085 31.9742 20.2387 31.9796C16.7996 32.0486 13.3372 30.6652 10.8789 27.7992C7.17205 23.4775 7.04586 16.9805 10.6028 12.5346C15.1443 6.85793 23.4884 6.51742 28.4858 11.5149C30.8841 13.9132 32.0409 17.0816 31.9796 20.231C31.9743 20.5007 32.1267 20.7413 32.371 20.8556C33.2337 21.2592 34.0322 21.7972 34.7234 22.4731C34.9031 22.6501 35.1674 22.7101 35.4083 22.6261C35.6466 22.5434 35.8185 22.3324 35.851 22.0818C35.9811 21.068 36.0236 20.2678 35.9895 19.4773C35.6382 11.3328 29.2068 4.56812 21.0721 4.03517C11.0822 3.38066 2.8672 11.9533 4.12823 22.0494C5.097 29.8061 11.7302 35.7107 19.5422 35.9925C20.3208 36.0206 21.1051 35.9783 22.0824 35.8504C22.3337 35.8179 22.5434 35.6467 22.6267 35.4077C22.7087 35.1694 22.6501 34.9045 22.473 34.7235C21.795 34.0295 21.2644 33.2321 20.8633 32.371Z" fill="#FACE50"/>
<path d="M28.8194 18.7936C28.5733 18.9479 28.4548 19.2441 28.5277 19.5253C28.6006 19.8066 28.848 20.0091 29.1384 20.0247C29.385 20.0379 29.6298 20.0622 29.8723 20.0969C30.2947 20.1569 30.6601 19.8167 30.6362 19.3907C30.4946 16.8657 29.4678 14.3823 27.5429 12.4574C23.2625 8.17701 16.2191 8.30189 12.1001 12.8323C8.39038 16.9124 8.46201 23.3331 12.2556 27.3353C14.2153 29.4029 16.7988 30.4984 19.4248 30.6374C19.84 30.6594 20.1546 30.2924 20.095 29.8809C20.0944 29.8765 20.0937 29.872 20.0931 29.8675C20.0484 29.5485 19.77 29.3085 19.4484 29.2893C18.5993 29.2387 17.8554 29.1101 17.1762 28.8955C16.8847 28.8033 16.6748 28.4983 16.6966 28.1934C16.8707 25.7627 18.2578 24.0001 20.0002 24.0001C20.2202 24.0001 20.4481 24.0378 20.7189 24.1179C20.7814 24.1368 20.8453 24.1459 20.9091 24.1459C21.1278 24.1459 21.3375 24.0378 21.4638 23.849C21.5185 23.767 21.5783 23.6895 21.637 23.6114C21.6383 23.6101 21.7164 23.5066 21.7177 23.5053C21.8961 23.2676 21.8948 22.9408 21.7164 22.7044C21.538 22.4674 21.2255 22.3776 20.9456 22.483C20.6279 22.6048 20.3088 22.6667 20.0002 22.6667C18.5301 22.6667 17.3335 21.4707 17.3335 19.9999C17.3335 18.6158 18.4221 17.4543 19.8127 17.3547C19.8792 17.3501 20.1214 17.3501 20.1877 17.3547C21.5784 17.4543 22.667 18.6158 22.667 19.9999C22.667 20.3086 22.6058 20.6269 22.4847 20.9453C22.3792 21.2226 22.469 21.5358 22.7047 21.7148C22.9404 21.8939 23.2673 21.8958 23.5056 21.7181C24.1957 21.2044 24.9535 20.7988 25.7583 20.511C26.0408 20.4107 26.2205 20.134 26.1997 19.8359C26.1776 19.537 25.9601 19.289 25.6658 19.2297C25.0395 19.1034 24.5317 18.8593 24.1957 18.5233C23.0655 17.3937 23.5368 15.4477 25.4562 13.3181C25.576 13.1853 25.7466 13.1053 25.9523 13.0974C26.1229 13.0974 26.2856 13.1626 26.4106 13.2804C27.7948 14.5897 28.7336 16.2557 29.1256 18.1008C29.184 18.3691 29.0629 18.6413 28.8194 18.7936ZM14.5443 26.7866C14.4245 26.9195 14.2539 26.9995 14.0755 27.0067L14.0481 27.0073C13.8776 27.0073 13.7148 26.9422 13.5898 26.8244C12.2057 25.5151 11.2668 23.8484 10.8749 22.0033C10.8111 21.711 10.9544 21.4101 11.22 21.2728C11.8437 20.9505 12.6198 20.7728 13.4037 20.7728C14.4311 20.7728 15.2839 21.0599 15.8048 21.5807C16.9337 22.7097 16.4623 24.6557 14.5443 26.7866ZM15.8048 18.5241C15.2839 19.0443 14.431 19.3314 13.4036 19.3314C12.6197 19.3314 11.8437 19.1536 11.22 18.8314C10.9543 18.694 10.8111 18.3933 10.8749 18.1009C10.8749 18.1002 10.8749 18.1002 10.8749 18.1002C11.2668 16.2558 12.2057 14.5897 13.5898 13.2804C13.7135 13.1633 13.875 13.0981 14.0716 13.0981C14.0729 13.0981 14.0742 13.0981 14.0755 13.0981C14.2539 13.1053 14.4245 13.1854 14.5443 13.3182C16.4636 15.4478 16.935 17.3938 15.8048 18.5241ZM23.3049 11.8435C23.1435 14.1822 21.8609 15.9016 20.185 16.0253C20.1199 16.0298 19.8804 16.0298 19.8152 16.0253C18.1394 15.9016 16.8568 14.1821 16.6953 11.8448C16.6745 11.5369 16.8646 11.2563 17.1576 11.1632C18.0808 10.8683 19.0378 10.7185 20.0001 10.7185C20.9624 10.7185 21.9194 10.8683 22.8426 11.1625C23.1356 11.2563 23.3258 11.5369 23.3049 11.8435Z" fill="#FACE50"/>
<path d="M28.667 27.3335C28.5519 27.3335 28.4488 27.3717 28.3421 27.3992L27.1409 26.198C26.8805 25.9376 26.4586 25.9376 26.1982 26.198C25.9378 26.4585 25.9378 26.8803 26.1982 27.1407L27.3994 28.3419C27.3719 28.4486 27.3337 28.5516 27.3337 28.6668C27.3337 29.4019 27.9314 30.0002 28.667 30.0002C29.4027 30.0002 30.0004 29.4019 30.0004 28.6668C30.0004 27.9318 29.4027 27.3335 28.667 27.3335Z" fill="#FACE50"/>
<path d="M28.6669 21.3335C24.6238 21.3335 21.3334 24.6233 21.3334 28.667C21.3334 29.6768 21.5418 30.6638 21.9519 31.6013C23.1212 34.2739 25.758 36.0005 28.6669 36.0005C31.5759 36.0005 34.2126 34.2739 35.382 31.6013C35.7922 30.6638 36.0005 29.6768 36.0005 28.667C36.0005 24.6233 32.71 21.3335 28.6669 21.3335ZM34.0004 29.3337H34.5976C34.5459 29.7873 34.4451 30.2319 34.289 30.667H23.0449C22.8889 30.2319 22.7881 29.7872 22.7363 29.3337H23.3335C23.702 29.3337 24.0002 29.0355 24.0002 28.667C24.0002 28.2985 23.702 28.0003 23.3335 28.0003H22.7342C22.8637 26.8488 23.3112 25.8034 23.9998 24.9426L24.1954 25.1382C24.3256 25.2684 24.4963 25.3335 24.6668 25.3335C24.8374 25.3335 25.008 25.2684 25.1382 25.1382C25.3987 24.8778 25.3987 24.4559 25.1382 24.1955L24.9426 23.9999C25.8034 23.3113 26.8488 22.8638 28.0003 22.7342V23.3335C28.0003 23.7021 28.2985 24.0002 28.667 24.0002C29.0355 24.0002 29.3337 23.7021 29.3337 23.3335V22.7342C30.4852 22.8638 31.5306 23.3113 32.3914 23.9999L32.1958 24.1955C31.9353 24.4559 31.9353 24.8778 32.1958 25.1382C32.326 25.2684 32.4966 25.3335 32.6671 25.3335C32.8377 25.3335 33.0083 25.2684 33.1385 25.1382L33.3342 24.9426C34.0227 25.8034 34.4703 26.8488 34.5998 28.0003H34.0004C33.6319 28.0003 33.3337 28.2985 33.3337 28.667C33.3337 29.0355 33.6319 29.3337 34.0004 29.3337Z" fill="#FACE50"/>
</svg>
