<svg width="40" height="40" viewBox="0 0 40 40" fill="none" xmlns="http://www.w3.org/2000/svg">
<path fill-rule="evenodd" clip-rule="evenodd" d="M30.1812 29.2665C29.49 29.2665 28.8466 29.4473 28.2703 29.7396L27.1299 28.4011C27.6355 28.1059 28.1824 27.8789 28.7605 27.7511C29.2318 27.6463 29.6989 27.6079 30.1858 27.6007C30.8147 27.6055 31.4334 27.3605 31.8964 26.9074C32.3794 26.4354 32.6562 25.7787 32.6562 25.0022C32.6562 20.7342 29.0158 17.5999 25.1721 17.5999H24.2187C23.7525 17.5999 23.375 17.9727 23.375 18.4332C23.375 18.8937 23.7525 19.2665 24.2187 19.2665H25.1721C25.3686 19.2665 25.558 19.2926 25.7474 19.3188C25.8003 19.3261 25.8532 19.3334 25.9062 19.3401V20.9503C25.4162 20.9942 24.9548 21.1439 24.5182 21.3446C24.5155 21.3416 24.5125 21.339 24.5095 21.3365C24.5063 21.3338 24.5031 21.3312 24.5004 21.3279C23.8078 21.6478 23.2108 22.148 22.7784 22.7887L20.8578 25.6337C20.726 25.8282 20.5183 25.9592 20.2834 25.995C18.5753 26.2544 17.0945 27.3299 16.3169 28.9004C17.0376 29.9642 17.4687 31.2316 17.4687 32.5999H15.725C15.725 29.8427 13.4541 27.5999 10.6625 27.5999C7.87085 27.5999 5.59998 29.8427 5.59998 32.5999C5.59998 35.357 7.87085 37.5999 10.6625 37.5999C12.8595 37.5999 14.7151 36.2023 15.4141 34.2665H23.375C23.8412 34.2665 24.2187 33.8937 24.2187 33.4332C24.2187 32.9701 24.2748 32.4972 24.3844 32.0287C24.6142 31.0556 25.1266 30.1699 25.8144 29.4464L26.9532 30.783C26.3439 31.5055 25.9625 32.4217 25.9625 33.4332C25.9625 35.7305 27.8552 37.5999 30.1812 37.5999C32.5073 37.5999 34.4 35.7305 34.4 33.4332C34.4 31.1359 32.5073 29.2665 30.1812 29.2665ZM10.6625 35.9332C8.80117 35.9332 7.28748 34.4382 7.28748 32.5999C7.28748 30.7615 8.80117 29.2665 10.6625 29.2665C12.5238 29.2665 14.0375 30.7615 14.0375 32.5999H11.5062C11.0406 32.5999 10.6625 32.2264 10.6625 31.7665C10.6625 31.306 10.285 30.9332 9.81873 30.9332C9.35247 30.9332 8.97498 31.306 8.97498 31.7665C8.97498 33.145 10.1105 34.2665 11.5062 34.2665H13.5681C12.9828 35.2581 11.9063 35.9332 10.6625 35.9332ZM30.1812 35.9332C28.7855 35.9332 27.65 34.8117 27.65 33.4332C27.65 32.9503 27.7957 32.5031 28.0367 32.1203L29.522 33.954C29.8154 34.3153 30.3467 34.3698 30.7086 34.0842C31.072 33.796 31.1313 33.2722 30.8404 32.9124L29.3568 31.0808C29.6165 30.9916 29.891 30.9332 30.1812 30.9332C31.5769 30.9332 32.7125 32.0547 32.7125 33.4332C32.7125 34.8117 31.5769 35.9332 30.1812 35.9332ZM19.9288 24.0059L21.3744 21.8642C21.8364 21.1793 22.4424 20.6229 23.1308 20.1908C22.2049 19.6133 21.1375 19.2665 20 19.2665C18.0064 19.2665 16.1649 20.2702 15.0809 21.8798L16.4305 22.6797C17.5146 23.3221 18.7018 23.7522 19.9288 24.0059ZM10.1477 20.9332L15.5622 24.1085C16.2686 24.5269 17.0196 24.8499 17.7867 25.127C16.7271 25.6934 15.803 26.4994 15.1484 27.5389C15.1441 27.5457 15.1421 27.5531 15.14 27.5605C15.1382 27.5671 15.1364 27.5737 15.133 27.5799C13.2572 25.9694 11.5064 25.9332 9.81873 25.9332C7.4927 25.9332 5.59998 24.0638 5.59998 21.7665C5.59998 21.306 5.97747 20.9332 6.44373 20.9332H10.1477Z" fill="#FACE50"/>
<path d="M4.83336 13.3333H34.5C34.9606 13.3333 35.3333 13.706 35.3333 14.1666C35.3333 14.6273 34.9606 15 34.5 15H4.83336C4.37273 15 4 14.6273 4 14.1666C4.00008 13.706 4.37281 13.3333 4.83336 13.3333Z" fill="#FACE50"/>
<path d="M10.6766 10.5599V10.1787L11.0641 10.3829L11.2 10.0967L10.8268 9.90001L11.0644 9.73297L10.8961 9.46673L10.5141 9.73521L10.2331 9.58705L10.755 9.25697L10.5988 8.98257L9.91138 9.41729L9.62619 9.26689L10.148 8.93681C10.1932 8.90817 10.2213 8.85601 10.2213 8.79985C10.2213 8.74369 10.1932 8.69153 10.1477 8.66273L9.62589 8.33265L9.91108 8.18225L10.5985 8.61697L10.7547 8.34257L10.2328 8.01249L10.5138 7.86433L10.8958 8.13281L11.0641 7.86657L10.8264 7.69953L11.1997 7.50289L11.0638 7.21665L10.6766 7.42097V7.03985H10.3731V7.58097L10.0695 7.74097V7.03985H9.76598V7.90097L9.46242 8.06097V7.19985C9.46242 7.14081 9.43161 7.08657 9.38228 7.05873C9.33326 7.03089 9.27285 7.03409 9.22656 7.06673L8.55175 7.54097V7.11489L9.40793 6.36273L9.21351 6.11697L8.55175 6.69825V6.30609L8.96262 5.87297L8.748 5.64673L8.55175 5.85361V5.59985H8.2482V5.85361L8.05195 5.64673L7.83733 5.87297L8.2482 6.30609V6.69825L7.5866 6.11697L7.39217 6.36273L8.2482 7.11489V7.54097L7.57354 7.06673C7.52695 7.03393 7.467 7.03089 7.41782 7.05873C7.36834 7.08657 7.33753 7.14081 7.33753 7.19985V8.06097L7.03397 7.90097V7.03985H6.73042V7.74097L6.42686 7.58097V7.03985H6.12331V7.42097L5.73582 7.21681L5.59998 7.50305L5.9732 7.69969L5.73551 7.86673L5.90384 8.13297L6.28586 7.86449L6.5668 8.01265L6.04499 8.34273L6.20117 8.61713L6.88857 8.18241L7.17376 8.33281L6.65195 8.66289C6.60672 8.69153 6.57864 8.74369 6.57864 8.79985C6.57864 8.85601 6.60672 8.90817 6.65225 8.93697L7.17406 9.26705L6.88887 9.41745L6.20147 8.98273L6.04529 9.25713L6.5671 9.58721L6.28616 9.73537L5.90414 9.46689L5.73582 9.73313L5.9735 9.90017L5.60028 10.0968L5.73612 10.3831L6.12331 10.1787V10.5599H6.42686V10.0187L6.73042 9.85873V10.5599H7.03397V9.69873L7.33753 9.53873V10.3999C7.33753 10.4589 7.36834 10.5131 7.41767 10.541C7.46684 10.5687 7.52695 10.5656 7.57339 10.533L8.2482 10.0587V10.4848L7.39202 11.237L7.58645 11.4827L8.2482 10.9015V11.2936L7.83733 11.7267L8.05195 11.953L8.2482 11.7461V11.9999H8.55175V11.7461L8.748 11.953L8.96262 11.7267L8.55175 11.2936V10.9015L9.21335 11.4827L9.40778 11.237L8.55175 10.4848V10.0587L9.22641 10.533C9.25175 10.5509 9.2812 10.5599 9.31064 10.5599C9.33523 10.5599 9.35982 10.5536 9.38228 10.541C9.43161 10.5131 9.46242 10.4589 9.46242 10.3999V9.53873L9.76598 9.69873V10.5599H10.0695V9.85873L10.3731 10.0187V10.5599H10.6766ZM9.77463 8.79985L9.30412 9.09745L8.73935 8.79985L9.30396 8.50225L9.77463 8.79985ZM9.15886 7.49889V8.22097L8.55175 8.54097V7.92545L9.15886 7.49889ZM7.64109 7.49889L8.2482 7.92561V8.54113L7.64109 8.22113V7.49889ZM7.02532 8.79985L7.49583 8.50225L8.06045 8.79985L7.49583 9.09745L7.02532 8.79985ZM7.64109 10.1008V9.37873L8.2482 9.05873V9.67425L7.64109 10.1008ZM9.15886 10.1008L8.55175 9.67409V9.05857L9.15886 9.37857V10.1008Z" fill="#FACE50"/>
<path d="M21.8767 8.15995V7.77883L22.2641 7.98299L22.4 7.69675L22.0268 7.50011L22.2644 7.33307L22.0961 7.06683L21.7141 7.33531L21.4332 7.18715L21.955 6.85707L21.7988 6.58267L21.1114 7.01739L20.8262 6.86699L21.348 6.53691C21.3932 6.50827 21.4213 6.45611 21.4213 6.39995C21.4213 6.34379 21.3932 6.29163 21.3477 6.26283L20.8259 5.93275L21.1111 5.78235L21.7985 6.21707L21.9547 5.94267L21.4329 5.61259L21.7138 5.46443L22.0958 5.73291L22.2641 5.46667L22.0265 5.29963L22.3997 5.10299L22.2638 4.81675L21.8767 5.02107V4.63995H21.5731V5.18107L21.2695 5.34107V4.63995H20.966V5.50107L20.6624 5.66107V4.79995C20.6624 4.74091 20.6316 4.68667 20.5823 4.65883C20.5333 4.63099 20.4729 4.63419 20.4266 4.66683L19.7518 5.14107V4.71499L20.6079 3.96283L20.4135 3.71707L19.7518 4.29835V3.90619L20.1626 3.47307L19.948 3.24683L19.7518 3.45371V3.19995H19.4482V3.45371L19.252 3.24683L19.0373 3.47307L19.4482 3.90619V4.29835L18.7866 3.71707L18.5922 3.96283L19.4482 4.71499V5.14107L18.7736 4.66683C18.727 4.63403 18.667 4.63099 18.6178 4.65883C18.5684 4.68667 18.5375 4.74091 18.5375 4.79995V5.66107L18.234 5.50107V4.63995H17.9304V5.34107L17.6269 5.18107V4.63995H17.3233V5.02107L16.9358 4.81691L16.8 5.10315L17.1732 5.29979L16.9355 5.46683L17.1038 5.73307L17.4859 5.46459L17.7668 5.61275L17.245 5.94283L17.4012 6.21723L18.0886 5.78251L18.3738 5.93291L17.852 6.26299C17.8067 6.29163 17.7787 6.34379 17.7787 6.39995C17.7787 6.45611 17.8067 6.50827 17.8523 6.53707L18.3741 6.86715L18.0889 7.01755L17.4015 6.58283L17.2453 6.85723L17.7671 7.18731L17.4862 7.33547L17.1042 7.06699L16.9358 7.33323L17.1735 7.50027L16.8003 7.69691L16.9361 7.98315L17.3233 7.77883V8.15995H17.6269V7.61883L17.9304 7.45883V8.15995H18.234V7.29883L18.5375 7.13883V7.99995C18.5375 8.05899 18.5684 8.11323 18.6177 8.14107C18.6669 8.16875 18.727 8.16571 18.7734 8.13307L19.4482 7.65883V8.08491L18.592 8.83707L18.7865 9.08283L19.4482 8.50155V8.89371L19.0373 9.32683L19.252 9.55307L19.4482 9.34619V9.59995H19.7518V9.34619L19.948 9.55307L20.1626 9.32683L19.7518 8.89371V8.50155L20.4134 9.08283L20.6078 8.83707L19.7518 8.08491V7.65883L20.4264 8.13307C20.4518 8.15099 20.4812 8.15995 20.5107 8.15995C20.5352 8.15995 20.5598 8.15371 20.5823 8.14107C20.6316 8.11323 20.6624 8.05899 20.6624 7.99995V7.13883L20.966 7.29883V8.15995H21.2695V7.45883L21.5731 7.61883V8.15995H21.8767ZM20.9746 6.39995L20.5041 6.69755L19.9394 6.39995L20.504 6.10235L20.9746 6.39995ZM20.3589 5.09899V5.82107L19.7518 6.14107V5.52555L20.3589 5.09899ZM18.8411 5.09899L19.4482 5.52571V6.14123L18.8411 5.82123V5.09899ZM18.2253 6.39995L18.6958 6.10235L19.2605 6.39995L18.6958 6.69755L18.2253 6.39995ZM18.8411 7.70091V6.97883L19.4482 6.65883V7.27435L18.8411 7.70091ZM20.3589 7.70091L19.7518 7.27419V6.65867L20.3589 6.97867V7.70091Z" fill="#FACE50"/>
<path d="M32.2767 10.5599V10.1787L32.6642 10.3829L32.8 10.0967L32.4268 9.90001L32.6645 9.73297L32.4962 9.46673L32.1141 9.73521L31.8332 9.58705L32.355 9.25697L32.1988 8.98257L31.5114 9.41729L31.2262 9.26689L31.748 8.93681C31.7933 8.90817 31.8213 8.85601 31.8213 8.79985C31.8213 8.74369 31.7933 8.69153 31.7477 8.66273L31.2259 8.33265L31.5111 8.18225L32.1985 8.61697L32.3547 8.34257L31.8329 8.01249L32.1138 7.86433L32.4958 8.13281L32.6642 7.86657L32.4265 7.69953L32.7997 7.50289L32.6639 7.21665L32.2767 7.42097V7.03985H31.9731V7.58097L31.6696 7.74097V7.03985H31.366V7.90097L31.0625 8.06097V7.19985C31.0625 7.14081 31.0316 7.08657 30.9823 7.05873C30.9333 7.03089 30.8729 7.03409 30.8266 7.06673L30.1518 7.54097V7.11489L31.008 6.36273L30.8135 6.11697L30.1518 6.69825V6.30609L30.5627 5.87297L30.348 5.64673L30.1518 5.85361V5.59985H29.8482V5.85361L29.652 5.64673L29.4374 5.87297L29.8482 6.30609V6.69825L29.1866 6.11697L28.9922 6.36273L29.8482 7.11489V7.54097L29.1736 7.06673C29.127 7.03393 29.067 7.03089 29.0179 7.05873C28.9684 7.08657 28.9376 7.14081 28.9376 7.19985V8.06097L28.634 7.90097V7.03985H28.3305V7.74097L28.0269 7.58097V7.03985H27.7233V7.42097L27.3359 7.21681L27.2 7.50305L27.5732 7.69969L27.3355 7.86673L27.5039 8.13297L27.8859 7.86449L28.1668 8.01265L27.645 8.34273L27.8012 8.61713L28.4886 8.18241L28.7738 8.33281L28.252 8.66289C28.2068 8.69153 28.1787 8.74369 28.1787 8.79985C28.1787 8.85601 28.2068 8.90817 28.2523 8.93697L28.7741 9.26705L28.4889 9.41745L27.8015 8.98273L27.6453 9.25713L28.1671 9.58721L27.8862 9.73537L27.5042 9.46689L27.3359 9.73313L27.5735 9.90017L27.2003 10.0968L27.3362 10.3831L27.7233 10.1787V10.5599H28.0269V10.0187L28.3305 9.85873V10.5599H28.634V9.69873L28.9376 9.53873V10.3999C28.9376 10.4589 28.9684 10.5131 29.0177 10.541C29.0669 10.5687 29.127 10.5656 29.1734 10.533L29.8482 10.0587V10.4848L28.9921 11.237L29.1865 11.4827L29.8482 10.9015V11.2936L29.4374 11.7267L29.652 11.953L29.8482 11.7461V11.9999H30.1518V11.7461L30.348 11.953L30.5627 11.7267L30.1518 11.2936V10.9015L30.8134 11.4827L31.0078 11.237L30.1518 10.4848V10.0587L30.8264 10.533C30.8518 10.5509 30.8812 10.5599 30.9107 10.5599C30.9353 10.5599 30.9599 10.5536 30.9823 10.541C31.0316 10.5131 31.0625 10.4589 31.0625 10.3999V9.53873L31.366 9.69873V10.5599H31.6696V9.85873L31.9731 10.0187V10.5599H32.2767ZM31.3747 8.79985L30.9042 9.09745L30.3394 8.79985L30.904 8.50225L31.3747 8.79985ZM30.7589 7.49889V8.22097L30.1518 8.54097V7.92545L30.7589 7.49889ZM29.2411 7.49889L29.8482 7.92561V8.54113L29.2411 8.22113V7.49889ZM28.6254 8.79985L29.0959 8.50225L29.6605 8.79985L29.0959 9.09745L28.6254 8.79985ZM29.2411 10.1008V9.37873L29.8482 9.05873V9.67425L29.2411 10.1008ZM30.7589 10.1008L30.1518 9.67409V9.05857L30.7589 9.37857V10.1008Z" fill="#FACE50"/>
<path d="M14.4 10.4C14.8418 10.4 15.2 10.0419 15.2 9.60005C15.2 9.15822 14.8418 8.80005 14.4 8.80005C13.9581 8.80005 13.6 9.15822 13.6 9.60005C13.6 10.0419 13.9581 10.4 14.4 10.4Z" fill="#FACE50"/>
<path d="M26.4 5.6C26.8418 5.6 27.2 5.24183 27.2 4.8C27.2 4.35817 26.8418 4 26.4 4C25.9581 4 25.6 4.35817 25.6 4.8C25.6 5.24183 25.9581 5.6 26.4 5.6Z" fill="#FACE50"/>
<path d="M23.2 11.9999C23.6418 11.9999 24 11.6417 24 11.1999C24 10.7581 23.6418 10.3999 23.2 10.3999C22.7582 10.3999 22.4 10.7581 22.4 11.1999C22.4 11.6417 22.7582 11.9999 23.2 11.9999Z" fill="#FACE50"/>
<path d="M11.2 4.79995C11.6419 4.79995 12 4.44178 12 3.99995C12 3.55812 11.6419 3.19995 11.2 3.19995C10.7582 3.19995 10.4 3.55812 10.4 3.99995C10.4 4.44178 10.7582 4.79995 11.2 4.79995Z" fill="#FACE50"/>
</svg>
