<svg width="100" height="100" viewBox="0 0 100 100" fill="none" xmlns="http://www.w3.org/2000/svg">
<path d="M72.6531 61.4406C71.8981 61.0372 71.4265 60.2508 71.4265 59.3937V57.0721H55.1752C53.8925 57.0721 52.8535 56.0336 52.8535 54.7505V45.464C52.8535 44.1808 53.8925 43.1423 55.1752 43.1423H71.4265V40.8207C71.4265 39.9632 71.8981 39.1767 72.6531 38.7733C73.4062 38.3719 74.3242 38.4174 75.0366 38.8889L88.9664 48.1754C89.6126 48.6059 90 49.3314 90 50.1072C90 50.8821 89.6126 51.6076 88.9664 52.0385L75.0366 61.325C74.3165 61.8053 73.398 61.8401 72.6531 61.4406Z" fill="#323534"/>
<path d="M66.7832 12.6517V38.4991H55.1751C54.3398 38.4991 53.5964 38.6379 52.8535 38.9165V26.5814C52.8535 23.9807 51.4141 21.6132 49.0001 20.3595L28.9872 10.3301H64.4616C65.7622 10.3301 66.7832 11.3511 66.7832 12.6517Z" fill="#323534"/>
<path d="M55.1752 61.7154H66.7833V77.9662C66.7833 79.2668 65.7623 80.2879 64.4617 80.2879H52.8535V61.2975C53.5965 61.5761 54.3399 61.7154 55.1752 61.7154Z" fill="#323534"/>
<path d="M46.9107 24.492L19.0507 10.5622C18.3547 10.2367 17.472 10.2367 16.822 10.6551C16.126 11.1189 15.7076 11.8619 15.7076 12.6517V77.9662C15.7076 78.9882 16.3577 79.8704 17.2868 80.149L45.1463 89.4355C45.8302 89.7092 46.7056 89.5545 47.2352 89.1569C47.8393 88.6926 48.2108 87.9961 48.2108 87.2536V26.5814C48.2103 25.6992 47.7001 24.9094 46.9107 24.492ZM38.9238 54.7504C38.9238 56.0501 37.9028 57.0721 36.6022 57.0721C35.3026 57.0721 34.2806 56.0501 34.2806 54.7504V45.4639C34.2806 44.1638 35.3026 43.1423 36.6022 43.1423C37.9028 43.1423 38.9238 44.1638 38.9238 45.4639V54.7504Z" fill="#323534"/>
</svg>
