<svg width="100" height="100" viewBox="0 0 100 100" fill="none" xmlns="http://www.w3.org/2000/svg">
<g clip-path="url(#clip0)">
<path d="M93.1973 69.4358C91.4316 70.8147 88.7969 70.8575 86.9785 69.5666C88.8078 67.9063 90.4004 65.8329 91.543 63.4807H5.32617C6.62891 66.1741 8.52344 68.553 10.8887 70.4319C9.46875 70.6643 7.95117 70.3323 6.80273 69.4358C4.89063 67.9416 2.47461 67.1174 0 67.1174V72.9768C1.17383 72.9768 2.30859 73.3596 3.19727 74.053C7.13867 77.1332 12.8613 77.1332 16.8027 74.053C18.61 72.6375 21.3627 72.6205 23.1973 74.053C27.1387 77.1332 32.8613 77.1332 36.8027 74.053C38.6459 72.6137 41.3986 72.6465 43.1973 74.053C47.1387 77.1332 52.8613 77.1332 56.8027 74.053C58.6572 72.6055 61.4107 72.6522 63.1953 74.053C67.1387 77.1332 72.8613 77.1332 76.8027 74.053C78.6482 72.6137 81.3945 72.644 83.1973 74.053C87.1309 77.1287 92.8516 77.1387 96.8027 74.053C97.6914 73.3596 98.8262 72.9768 100 72.9768V67.1174C97.5254 67.1174 95.1094 67.9414 93.1973 69.4358Z" fill="#323534"/>
<path d="M86.8035 81.9358C82.8613 78.8558 77.1389 78.8558 73.1963 81.9358C71.374 83.3595 68.626 83.3595 66.8035 81.9358C62.8611 78.8558 57.1387 78.8561 53.1963 81.9358C51.374 83.3595 48.626 83.3595 46.8035 81.9358C42.8611 78.8558 37.1387 78.8561 33.1963 81.9358C31.374 83.3595 28.626 83.3595 26.8035 81.9358C22.8611 78.8558 17.1385 78.8561 13.1963 81.9358C11.3742 83.3595 8.62598 83.3595 6.80371 81.9358C4.89023 80.4409 2.47402 79.6177 0 79.6177V85.4771C1.17285 85.4771 2.30801 85.8593 3.19629 86.5532C7.13887 89.6335 12.8613 89.6335 16.8035 86.5532C18.626 85.1298 21.3744 85.13 23.1963 86.5532C27.1387 89.6333 32.8613 89.6329 36.8035 86.5532C38.6258 85.1296 41.374 85.13 43.1961 86.5532C47.1385 89.6333 52.8611 89.6329 56.8033 86.5532C58.6256 85.1296 61.3738 85.13 63.1959 86.5532C67.1385 89.6335 72.8611 89.6335 76.8031 86.5532C78.6254 85.1296 81.3736 85.13 83.1959 86.5532C87.1375 89.6329 92.8604 89.6335 96.8031 86.5532C97.6914 85.8593 98.8266 85.4771 99.9996 85.4771V79.6177C97.5256 79.6177 95.1094 80.4409 93.1959 81.9358C91.374 83.3595 88.6258 83.3595 86.8035 81.9358Z" fill="#323534"/>
<path d="M98.2422 54.6917C98.2422 39.4442 85.9117 25.1995 70.3125 25.1995H67.5289L61.2789 11.137H50V16.9963H57.4711L61.7951 26.7254C60.9676 28.5168 59.5643 31.742 58.5428 33.1975C54.6645 38.7227 47.4031 40.7805 41.2078 38.086C43.8836 32.0493 39.4453 25.1995 32.8127 25.1995H21.8752C15.3674 25.1995 10.9023 31.8327 13.3834 37.861C10.1117 38.334 7.09219 39.8393 4.71387 42.2178C1.74727 45.184 0.195312 50.7381 0.195312 54.6917V57.6213H98.2422V54.6917Z" fill="#323534"/>
</g>
<defs>
<clipPath id="clip0">
<rect width="100" height="100" fill="white"/>
</clipPath>
</defs>
</svg>
