<svg width="100" height="100" viewBox="0 0 100 100" fill="none" xmlns="http://www.w3.org/2000/svg">
<g clip-path="url(#clip0)">
<path d="M85.4166 56.9003C77.375 56.9003 70.8332 63.4419 70.8332 71.4837C70.8332 79.5255 77.3748 86.0671 85.4166 86.0671C93.4584 86.0671 100 79.5253 100 71.4837C100 63.4421 93.4584 56.9003 85.4166 56.9003ZM85.4166 77.7337C81.9707 77.7337 79.1666 74.9296 79.1666 71.4837C79.1666 68.0378 81.9707 65.2337 85.4166 65.2337C88.8625 65.2337 91.6666 68.0378 91.6666 71.4837C91.6666 74.9296 88.8625 77.7337 85.4166 77.7337Z" fill="#323534"/>
<path d="M36.6166 66.6211C36.325 65.7877 35.5375 65.2336 34.6541 65.2336H22.9166C26.3625 65.2336 29.1666 68.0377 29.1666 71.4836C29.1666 74.9295 26.3625 77.7336 22.9166 77.7336C19.4707 77.7336 16.6666 74.9295 16.6666 71.4836C16.6666 68.0377 19.4707 65.2336 22.9166 65.2336H11.1834C10.3 65.2336 9.51251 65.7877 9.2209 66.6211C8.6209 68.3045 8.3334 69.892 8.3334 71.4836C8.3334 79.5252 14.875 86.067 22.9168 86.067C30.9584 86.067 37.5002 79.5254 37.5002 71.4836C37.5 69.8918 37.2125 68.3043 36.6166 66.6211Z" fill="#323534"/>
<path d="M43.75 36.0668H14.5834C11.1375 36.0668 8.3334 38.8709 8.3334 42.3168C8.3334 45.7627 11.1375 48.5668 14.5834 48.5668H43.75C47.1959 48.5668 50 45.7627 50 42.3168C50 38.8711 47.1959 36.0668 43.75 36.0668Z" fill="#323534"/>
<path d="M65.3875 40.3918C64.3291 39.9543 63.1084 40.4502 62.6625 41.5127L52.2459 66.5127C51.8043 67.5752 52.3043 68.7961 53.3668 69.2377C53.6293 69.3502 53.9002 69.4002 54.1668 69.4002C54.9834 69.4002 55.7543 68.9168 56.0918 68.1168L66.5084 43.1168C66.95 42.0543 66.45 40.8336 65.3875 40.3918Z" fill="#323534"/>
<path d="M42.7625 53.4752C42.3666 53.0043 41.7834 52.7336 41.1666 52.7336H14.5834C12.1625 52.7336 9.8625 51.8752 7.9293 50.2502C7.0834 49.5418 5.8293 49.6127 5.0709 50.4168C4.675 50.8334 4.3043 51.2627 3.9584 51.6834C1.4041 54.8252 0 58.8961 0 63.1502C0 66.5961 2.8041 69.4002 6.25 69.4002H39.5834C40.6668 69.4002 41.5709 68.5711 41.6584 67.4918C41.6625 67.4252 42.225 60.8584 43.2209 55.1752C43.325 54.5711 43.1584 53.9461 42.7625 53.4752Z" fill="#323534"/>
<path d="M70.604 18.6168C68.5124 19.0334 67.2624 21.1877 67.9374 23.2084L67.9458 23.2293C68.4249 24.6752 69.7792 25.6502 71.3042 25.6502H74.9999L77.0833 17.3168L70.604 18.6168Z" fill="#323534"/>
<path d="M78.5917 15.8794C78.0958 15.3627 77.3707 15.1335 76.675 15.2752L70.1916 16.5711C68.6082 16.8877 67.2375 17.8711 66.4291 19.267C65.6207 20.6629 65.45 22.3379 65.9666 23.8879C66.7332 26.1879 68.8791 27.7338 71.3041 27.7338H75C75.9541 27.7338 76.7875 27.0838 77.0209 26.1547L79.1043 17.8213C79.2792 17.1294 79.0834 16.3961 78.5917 15.8794ZM73.375 23.5668H71.3041C70.675 23.5668 70.1166 23.1627 69.9125 22.5459C69.7291 22.0043 69.9084 21.5668 70.0334 21.3543C70.1543 21.1418 70.4459 20.7668 71.0084 20.6543L74.2625 20.0043L73.375 23.5668Z" fill="#323534"/>
<path d="M85.4165 48.5667C80.9124 48.5667 79.1124 43.8792 78.9956 43.5792L67.9872 17.8917C66.7206 14.9292 63.5413 13.3542 60.3997 14.1292C58.6413 14.5667 57.1331 15.7333 56.2622 17.3208C55.3913 18.9083 55.2163 20.8083 55.7913 22.5292L57.8704 28.7708L63.5704 25.3499C64.562 24.7583 65.837 25.079 66.4288 26.0624C67.0204 27.0499 66.6997 28.329 65.7163 28.9208L59.2247 32.8167L62.6081 42.9708C62.6872 43.2042 62.804 43.4208 62.954 43.6124L66.6874 48.2833C68.4958 50.5417 68.5415 53.6833 66.804 55.9292C65.6249 57.4501 64.6749 59.0251 63.9749 60.6083C63.1208 62.5458 63.2999 64.7667 64.4624 66.5458C65.6249 68.3292 67.5874 69.3958 69.7083 69.3958H72.9167C74.0667 69.3958 75.0001 68.4624 75.0001 67.3124C75.0001 66.8833 74.8417 66.5083 74.6167 66.179L83.7126 60.1165C84.0751 60.6581 84.6542 61.0456 85.3585 61.0665C89.5585 61.1956 96.9419 61.0665 99.0919 58.979C99.6794 58.4081 100 57.6665 100 56.8999C99.9999 52.6085 91.7833 48.5667 85.4165 48.5667Z" fill="#323534"/>
<path d="M64.2834 22.4917C63.6918 21.5083 62.4168 21.1833 61.425 21.7792L51.0084 28.0292C50.025 28.6208 49.7043 29.9001 50.2959 30.8876C50.6875 31.5417 51.375 31.9001 52.0834 31.9001C52.45 31.9001 52.8209 31.8042 53.1543 31.6001L63.5709 25.3501C64.5541 24.7585 64.875 23.4751 64.2834 22.4917Z" fill="#323534"/>
<path d="M54.1666 65.2336H39.5832C38.4332 65.2336 37.4998 66.167 37.4998 67.317C37.4998 68.467 38.4332 69.4004 39.5832 69.4004H54.1666C55.3166 69.4004 56.25 68.467 56.25 67.317C56.25 66.1668 55.3166 65.2336 54.1666 65.2336Z" fill="#323534"/>
</g>
<defs>
<clipPath id="clip0">
<rect width="100" height="100" fill="white"/>
</clipPath>
</defs>
</svg>
