<svg width="101" height="100" viewBox="0 0 101 100" fill="none" xmlns="http://www.w3.org/2000/svg">
<path d="M27.5164 44.4866V55.5162C27.5164 57.3459 26.0295 58.835 24.1975 58.835H13.1702C11.3382 58.835 9.85135 57.3459 9.85135 55.5162V44.4866C9.85135 42.6524 11.3382 41.1678 13.1702 41.1678H24.1975C26.0295 41.1678 27.5164 42.6568 27.5164 44.4866ZM86.8304 41.1678H39.2539H37.5259C35.6962 41.1678 34.2071 42.6524 34.2071 44.4866V55.5162C34.2071 57.3459 35.6962 58.835 37.5259 58.835H39.2539H86.8326C88.6646 58.835 90.1515 57.3459 90.1515 55.5162V44.4866C90.1492 42.6568 88.6646 41.1678 86.8304 41.1678ZM24.1975 16H13.1702C11.3382 16 9.85135 17.4846 9.85135 19.3188V30.3484C9.85135 32.1826 11.3382 33.6672 13.1702 33.6672H24.1975C26.0295 33.6672 27.5164 32.1826 27.5164 30.3484V19.3188C27.5164 17.489 26.0295 16 24.1975 16ZM86.8304 16H39.2539H37.5259C35.6962 16 34.2071 17.4846 34.2071 19.3188V30.3484C34.2071 32.1826 35.6962 33.6672 37.5259 33.6672H39.2539H86.8326C88.6646 33.6672 90.1515 32.1826 90.1515 30.3484V19.3188C90.1492 17.489 88.6646 16 86.8304 16ZM24.1975 66.3377H13.1702C11.3382 66.3377 9.85135 67.8224 9.85135 69.6566V80.6839C9.85135 82.5203 11.3382 84.0028 13.1702 84.0028H24.1975C26.0295 84.0028 27.5164 82.5203 27.5164 80.6839V69.6566C27.5164 67.8224 26.0295 66.3377 24.1975 66.3377ZM86.8304 66.3377H39.2539H37.5259C35.6962 66.3377 34.2071 67.8224 34.2071 69.6566V80.6839C34.2071 82.5203 35.6962 84.0028 37.5259 84.0028H39.2539H86.8326C88.6646 84.0028 90.1515 82.5203 90.1515 80.6839V69.6566C90.1492 67.8224 88.6646 66.3377 86.8304 66.3377Z" fill="#323534"/>
</svg>
