<svg width="50" height="50" viewBox="0 0 50 50" fill="none" xmlns="http://www.w3.org/2000/svg">
<path fill-rule="evenodd" clip-rule="evenodd" d="M17.48 16.4667C17.48 12.3135 20.8468 8.94666 25 8.94666C29.1532 8.94666 32.52 12.3135 32.52 16.4667C32.52 20.6198 29.1532 23.9867 25 23.9867C20.8468 23.9867 17.48 20.6198 17.48 16.4667ZM25 6.94666C19.7423 6.94666 15.48 11.2089 15.48 16.4667C15.48 19.9571 17.3585 23.0089 20.1597 24.6661C17.2392 25.5381 14.9594 27.2238 13.2456 29.4673C10.7152 32.7798 9.47724 37.2272 9.07956 41.8571C8.97863 43.0321 9.91697 44 11.0596 44H38.9404C40.083 44 41.0214 43.0321 40.9205 41.8571C40.5228 37.2272 39.2848 32.7798 36.7545 29.4673C35.0406 27.2238 32.7609 25.5381 29.8404 24.6661C32.6415 23.0089 34.52 19.9571 34.52 16.4667C34.52 11.2089 30.2578 6.94666 25 6.94666ZM35.1651 30.6814C37.3713 33.5695 38.5424 37.5825 38.9254 42H11.0747C11.4576 37.5825 12.6287 33.5695 14.8349 30.6814C17.0102 27.8338 20.2487 26 25 26C29.7513 26 32.9898 27.8338 35.1651 30.6814Z" fill="#323534"/>
</svg>
