<svg width="100" height="100" viewBox="0 0 100 100" fill="none" xmlns="http://www.w3.org/2000/svg">
<path d="M3.90625 62.5C3.90625 63.1216 4.15318 63.7177 4.59272 64.1573C5.03226 64.5968 5.6284 64.8438 6.25 64.8438H7.21797C7.58534 67.1413 8.49047 69.3195 9.85957 71.2008L9.16914 71.8912C8.9515 72.1089 8.77885 72.3672 8.66107 72.6516C8.54328 72.936 8.48265 73.2407 8.48265 73.5485C8.48265 73.8563 8.54328 74.1611 8.66107 74.4455C8.77885 74.7298 8.9515 74.9882 9.16914 75.2059C9.60869 75.6454 10.2048 75.8923 10.8265 75.8923C11.1343 75.8923 11.439 75.8317 11.7234 75.7139C12.0078 75.5961 12.2661 75.4235 12.4838 75.2059L13.1742 74.5154C15.0555 75.8845 17.2337 76.7897 19.5312 77.157V78.125C19.5312 78.7466 19.7782 79.3427 20.2177 79.7823C20.6573 80.2218 21.2534 80.4688 21.875 80.4688C22.4966 80.4688 23.0927 80.2218 23.5323 79.7823C23.9718 79.3427 24.2188 78.7466 24.2188 78.125V77.157C26.5163 76.7897 28.6945 75.8845 30.5758 74.5154L31.2662 75.2059C31.4839 75.4235 31.7422 75.5961 32.0266 75.7139C32.311 75.8317 32.6157 75.8923 32.9235 75.8923C33.2313 75.8923 33.5361 75.8317 33.8205 75.7139C34.1048 75.5961 34.3632 75.4235 34.5809 75.2059C34.7985 74.9882 34.9711 74.7298 35.0889 74.4455C35.2067 74.1611 35.2673 73.8563 35.2673 73.5485C35.2673 73.2407 35.2067 72.936 35.0889 72.6516C34.9711 72.3672 34.7985 72.1089 34.5809 71.8912L33.8904 71.2008C35.2595 69.3195 36.1647 67.1413 36.532 64.8438H37.5C38.1216 64.8438 38.7177 64.5968 39.1573 64.1573C39.5968 63.7177 39.8438 63.1216 39.8438 62.5C39.8438 61.8784 39.5968 61.2823 39.1573 60.8427C38.7177 60.4032 38.1216 60.1562 37.5 60.1562H36.532C36.1647 57.8587 35.2595 55.6805 33.8904 53.7992L34.5809 53.1088C34.7985 52.8911 34.9711 52.6328 35.0889 52.3484C35.2067 52.064 35.2673 51.7593 35.2673 51.4515C35.2673 51.1437 35.2067 50.8389 35.0889 50.5545C34.9711 50.2702 34.7985 50.0118 34.5809 49.7941C34.3632 49.5765 34.1048 49.4039 33.8205 49.2861C33.5361 49.1683 33.2313 49.1077 32.9235 49.1077C32.6157 49.1077 32.311 49.1683 32.0266 49.2861C31.7422 49.4039 31.4839 49.5765 31.2662 49.7941L30.5758 50.4846C28.6945 49.1155 26.5163 48.2103 24.2188 47.843V46.875C24.2188 46.2534 23.9718 45.6573 23.5323 45.2177C23.0927 44.7782 22.4966 44.5312 21.875 44.5312C21.2534 44.5312 20.6573 44.7782 20.2177 45.2177C19.7782 45.6573 19.5312 46.2534 19.5312 46.875V47.843C17.2337 48.2103 15.0555 49.1155 13.1742 50.4846L12.4838 49.7941C12.2661 49.5765 12.0078 49.4039 11.7234 49.2861C11.439 49.1683 11.1343 49.1077 10.8265 49.1077C10.5187 49.1077 10.2139 49.1683 9.92953 49.2861C9.64516 49.4039 9.38678 49.5765 9.16914 49.7941C8.9515 50.0118 8.77885 50.2702 8.66107 50.5545C8.54328 50.8389 8.48265 51.1437 8.48265 51.4515C8.48265 51.7593 8.54328 52.064 8.66107 52.3484C8.77885 52.6328 8.9515 52.8911 9.16914 53.1088L9.85957 53.7992C8.49047 55.6805 7.58534 57.8587 7.21797 60.1562H6.25C5.6284 60.1562 5.03226 60.4032 4.59272 60.8427C4.15318 61.2823 3.90625 61.8784 3.90625 62.5ZM15.625 62.5C15.625 61.2639 15.9916 60.0555 16.6783 59.0277C17.3651 57.9999 18.3412 57.1988 19.4832 56.7258C20.6253 56.2527 21.8819 56.1289 23.0943 56.3701C24.3067 56.6112 25.4203 57.2065 26.2944 58.0806C27.1685 58.9547 27.7638 60.0683 28.0049 61.2807C28.2461 62.4931 28.1223 63.7497 27.6492 64.8918C27.1762 66.0338 26.3751 67.0099 25.3473 67.6967C24.3195 68.3834 23.1111 68.75 21.875 68.75C20.2174 68.75 18.6277 68.0915 17.4556 66.9194C16.2835 65.7473 15.625 64.1576 15.625 62.5Z" fill="#323534"/>
<path d="M63.2812 62.5C63.2812 63.1216 63.5282 63.7177 63.9677 64.1573C64.4073 64.5968 65.0034 64.8438 65.625 64.8438H66.593C66.9603 67.1413 67.8655 69.3195 69.2346 71.2008L68.5441 71.8912C68.1046 72.3308 67.8577 72.9269 67.8577 73.5485C67.8577 74.1702 68.1046 74.7663 68.5441 75.2059C68.9837 75.6454 69.5798 75.8923 70.2015 75.8923C70.8231 75.8923 71.4192 75.6454 71.8588 75.2059L72.5492 74.5154C74.4305 75.8845 76.6087 76.7897 78.9062 77.157V78.125C78.9062 78.7466 79.1532 79.3427 79.5927 79.7823C80.0323 80.2218 80.6284 80.4688 81.25 80.4688C81.8716 80.4688 82.4677 80.2218 82.9073 79.7823C83.3468 79.3427 83.5938 78.7466 83.5938 78.125V77.157C85.8913 76.7897 88.0695 75.8845 89.9508 74.5154L90.6412 75.2059C91.0808 75.6454 91.6769 75.8923 92.2985 75.8923C92.9202 75.8923 93.5163 75.6454 93.9559 75.2059C94.3954 74.7663 94.6423 74.1702 94.6423 73.5485C94.6423 72.9269 94.3954 72.3308 93.9559 71.8912L93.2654 71.2008C94.6345 69.3195 95.5397 67.1413 95.907 64.8438H96.875C97.4966 64.8438 98.0927 64.5968 98.5323 64.1573C98.9718 63.7177 99.2188 63.1216 99.2188 62.5C99.2188 61.8784 98.9718 61.2823 98.5323 60.8427C98.0927 60.4032 97.4966 60.1562 96.875 60.1562H95.907C95.5397 57.8587 94.6345 55.6805 93.2654 53.7992L93.9559 53.1088C94.3954 52.6692 94.6423 52.0731 94.6423 51.4515C94.6423 50.8298 94.3954 50.2337 93.9559 49.7941C93.5163 49.3546 92.9202 49.1077 92.2985 49.1077C91.6769 49.1077 91.0808 49.3546 90.6412 49.7941L89.9508 50.4846C88.0695 49.1155 85.8913 48.2103 83.5938 47.843V46.875C83.5938 46.2534 83.3468 45.6573 82.9073 45.2177C82.4677 44.7782 81.8716 44.5312 81.25 44.5312C80.6284 44.5312 80.0323 44.7782 79.5927 45.2177C79.1532 45.6573 78.9062 46.2534 78.9062 46.875V47.843C76.6087 48.2103 74.4305 49.1155 72.5492 50.4846L71.8588 49.7941C71.4192 49.3546 70.8231 49.1077 70.2015 49.1077C69.5798 49.1077 68.9837 49.3546 68.5441 49.7941C68.1046 50.2337 67.8577 50.8298 67.8577 51.4515C67.8577 52.0731 68.1046 52.6692 68.5441 53.1088L69.2346 53.7992C67.8655 55.6805 66.9603 57.8587 66.593 60.1562H65.625C65.0034 60.1562 64.4073 60.4032 63.9677 60.8427C63.5282 61.2823 63.2812 61.8784 63.2812 62.5ZM75 62.5C75 61.2639 75.3666 60.0555 76.0533 59.0277C76.7401 57.9999 77.7162 57.1988 78.8582 56.7258C80.0003 56.2527 81.2569 56.1289 82.4693 56.3701C83.6817 56.6112 84.7953 57.2065 85.6694 58.0806C86.5435 58.9547 87.1388 60.0683 87.3799 61.2807C87.6211 62.4931 87.4973 63.7497 87.0242 64.8918C86.5512 66.0338 85.7501 67.0099 84.7223 67.6967C83.6945 68.3834 82.4861 68.75 81.25 68.75C79.5924 68.75 78.0027 68.0915 76.8306 66.9194C75.6585 65.7473 75 64.1576 75 62.5Z" fill="#323534"/>
<path d="M13.6696 29.417C13.4362 29.0637 13.3028 28.6539 13.2837 28.2309C13.2646 27.8079 13.3604 27.3877 13.5609 27.0148C13.7615 26.6419 14.0593 26.3303 14.4227 26.1131C14.7862 25.8959 15.2017 25.7813 15.625 25.7812H43.75C47.2217 25.7812 49.8602 26.8713 51.5922 29.0213C51.7485 29.2145 51.8901 29.4119 52.0239 29.6121C41.6811 32.2465 27.7315 33.7828 17.0686 34.5613L13.6696 29.417Z" fill="#323534"/>
<path d="M3.12505 25.7812H6.25005C6.87165 25.7812 7.46779 26.0282 7.90733 26.4677C8.34687 26.9073 8.5938 27.5034 8.5938 28.125V37.274C16.6836 36.8779 28.4428 36.0631 37.5954 34.7439C50.5038 32.8826 59.436 30.4326 64.2284 27.4475L61.0516 21.0937H56.3282C55.7045 21.1013 55.1025 20.8653 54.6502 20.4358C54.1979 20.0063 53.931 19.4174 53.9063 18.7941C53.9004 18.4827 53.9567 18.1731 54.0719 17.8837C54.187 17.5942 54.3587 17.3306 54.577 17.1082C54.7952 16.8859 55.0555 16.7093 55.3428 16.5888C55.6301 16.4682 55.9385 16.4062 56.25 16.4063H62.5C62.9353 16.4063 63.362 16.5275 63.7322 16.7563C64.1025 16.9852 64.4017 17.3126 64.5963 17.702L69.0885 26.6863C69.1324 26.7755 69.1705 26.8674 69.2028 26.9613C69.3813 27.0224 69.5619 27.0845 69.7446 27.1477L72.8583 20.1418C73.1096 19.5769 73.5739 19.1342 74.1501 18.9101C74.7263 18.686 75.3677 18.6987 75.9346 18.9453L93.9034 26.7578C94.4714 27.0049 94.9186 27.4667 95.1471 28.0425C95.3757 28.6183 95.3669 29.2611 95.1229 29.8305L92.7792 35.2992C92.7093 35.4627 92.621 35.6177 92.5161 35.7611C93.6122 36.1957 94.5526 36.5703 95.2809 36.8615C95.71 37.0331 96.0788 37.3277 96.3408 37.7085C96.6028 38.0892 96.7463 38.5389 96.7532 39.001L96.8508 45.3311C96.8579 45.7896 96.7303 46.2402 96.4838 46.6269C96.2373 47.0137 95.8828 47.3196 95.4641 47.5068L93.5598 48.3586C91.0509 46.1748 88.0062 44.6976 84.7381 44.0785C81.47 43.4595 78.096 43.7209 74.9622 44.8358C71.8284 45.9508 69.0476 47.8793 66.9049 50.4234C64.7622 52.9676 63.3348 56.0359 62.769 59.3137H62.759C62.5331 48.0994 64.5659 40.4395 68.9725 35.8957C71.9108 32.8662 75.936 31.3059 80.9368 31.2562C83.4991 32.2328 86.0301 33.2135 88.2977 34.101C88.3239 33.8781 88.382 33.6602 88.4702 33.4539L89.896 30.1281L76.1975 24.1723L74.1731 28.727C74.8097 28.9591 75.4547 29.1963 76.1081 29.4385C72.6153 30.2084 69.6602 31.8213 67.2903 34.2641C63.7635 37.9008 61.6133 43.2191 60.7877 50.3928H36.029C32.527 46.3459 27.4239 43.7521 21.875 43.7521C19.3896 43.7476 16.9283 44.2404 14.6362 45.2014L5.33091 41.2324C4.90826 41.0522 4.54789 40.7518 4.29461 40.3685C4.04132 39.9851 3.90629 39.5358 3.9063 39.0764V30.4687H3.20317C2.57952 30.4763 1.97751 30.2403 1.52522 29.8108C1.07292 29.3813 0.806027 28.7924 0.7813 28.1691C0.775432 27.8577 0.831722 27.5481 0.946876 27.2587C1.06203 26.9692 1.23374 26.7056 1.45196 26.4832C1.67019 26.2609 1.93055 26.0843 2.21782 25.9638C2.50509 25.8432 2.81351 25.7812 3.12505 25.7812Z" fill="#323534"/>
<path d="M60.5693 52.7344C60.4349 54.5999 60.3803 56.5796 60.4054 58.6736C60.4068 58.7651 60.3899 58.856 60.3559 58.9409C60.3218 59.0259 60.2713 59.1032 60.2071 59.1685C60.1429 59.2337 60.0664 59.2856 59.982 59.321C59.8977 59.3565 59.8071 59.3748 59.7156 59.375C59.7156 59.375 40.4687 59.5779 40.4297 59.375C39.9665 57.0148 39.065 54.7624 37.772 52.7344H60.5693Z" fill="#323534"/>
</svg>
