<svg width="40" height="40" viewBox="0 0 40 40" fill="none" xmlns="http://www.w3.org/2000/svg">
<path d="M35.7631 29.6039L33.2713 24.3439C32.9578 23.6796 31.8686 23.6796 31.5551 24.3439L29.0782 29.5779C28.7739 30.1327 28.6134 30.7635 28.6134 31.3999C28.6134 33.4955 30.3176 35.1997 32.4132 35.1997C34.5089 35.1997 36.2131 33.4955 36.2131 31.3999C36.213 30.7728 36.0572 30.153 35.7631 29.6039Z" fill="#FACE50"/>
<path d="M33.6005 21.1288C33.5402 20.7113 33.2127 20.3829 32.7952 20.3226L23.1615 18.9533L22.1364 15.1284C21.9425 14.4029 21.4592 13.7721 20.8088 13.3973L17.3772 11.4161L18.3271 9.77109C19.6768 10.2909 21.3076 12.2076 22.0927 10.8482C22.3553 10.3936 22.1995 9.81283 21.7449 9.55032L15.1639 5.75047C14.7093 5.48701 14.1276 5.64287 13.866 6.09836C13.6034 6.55295 13.7593 7.1337 14.2139 7.39621L16.6815 8.82105L15.7318 10.466L11.7507 8.16747L9.61732 5.75966C8.32428 4.30474 5.99101 4.53906 5.01684 6.22629L4.16895 7.69387C3.55571 8.75798 3.69022 10.0901 4.50568 11.0095L7.12851 13.9675L6.04572 15.843L23.9807 26.1975L33.0531 22.1278C33.4372 21.9535 33.6598 21.5462 33.6005 21.1288ZM8.12978 12.2334L5.92691 9.74963C5.65509 9.44253 5.61057 8.99819 5.81469 8.64379L6.66264 7.17614C6.98595 6.61521 7.7655 6.53497 8.19616 7.02028L9.97825 9.03151C9.86812 9.22239 8.01135 12.4386 8.12978 12.2334Z" fill="#FACE50"/>
<path d="M5.0957 17.4885L4.62071 18.3112C3.83406 19.6753 4.29993 21.4159 5.66435 22.2038L16.3347 28.3646C17.1313 28.8244 18.1056 28.8706 18.9397 28.4908L21.8551 27.1644L5.0957 17.4885Z" fill="#FACE50"/>
</svg>
