<svg width="100" height="100" viewBox="0 0 100 100" fill="none" xmlns="http://www.w3.org/2000/svg">
<g clip-path="url(#clip0)">
<path d="M99.6861 44.4482C99.5282 43.0427 97.8887 41.9853 96.4711 41.9853C91.8896 41.9853 87.8236 39.2962 86.1184 35.1342C84.3777 30.8723 85.5008 25.9028 88.9142 22.7713C89.9893 21.7883 90.1204 20.1424 89.2191 18.9998C86.8735 16.0219 84.2086 13.3315 81.2981 11.0001C80.1594 10.0867 78.4862 10.2139 77.4981 11.3076C74.5179 14.6081 69.1645 15.8346 65.0275 14.1086C60.7241 12.2979 58.0078 7.93565 58.2746 3.25336C58.3624 1.78169 57.2864 0.502891 55.8199 0.332067C52.0847 -0.100397 48.3167 -0.112939 44.5707 0.30266C43.1228 0.462671 42.0477 1.7112 42.0957 3.16428C42.2578 7.80072 39.5108 12.086 35.2489 13.8319C31.1617 15.5016 25.8454 14.2842 22.8713 11.0126C21.8883 9.93494 20.2446 9.8026 19.0981 10.6965C16.102 13.0478 13.377 15.7399 11.0097 18.6936C10.0873 19.8418 10.2235 21.5059 11.3077 22.4924C14.7886 25.6446 15.9108 30.6569 14.1036 34.9686C12.378 39.0791 8.11004 41.7271 3.22449 41.7271C1.63908 41.6761 0.510779 42.7412 0.335631 44.1831C-0.103753 47.9382 -0.10851 51.7663 0.31444 55.5521C0.472289 56.9637 2.1602 58.012 3.59338 58.012C7.9483 57.9013 12.1268 60.5955 13.8821 64.8626C15.6289 69.1246 14.5045 74.0919 11.0854 77.2277C10.0159 78.2107 9.87925 79.8527 10.7822 80.994C13.1041 83.9534 15.7716 86.6454 18.6907 88.9967C19.8367 89.9196 21.5035 89.7903 22.4968 88.6953C25.4886 85.387 30.8412 84.1627 34.9613 85.8921C39.2773 87.6981 41.9923 92.0599 41.7272 96.7435C41.6403 98.2152 42.7189 99.4978 44.1801 99.6648C46.0916 99.8884 48.0131 99.9991 49.9406 99.9991C51.7699 99.9991 53.5997 99.8992 55.4294 99.6955C56.879 99.5355 57.9524 98.2857 57.9035 96.8321C57.7362 92.1979 60.4892 87.9121 64.746 86.1697C68.8605 84.4892 74.1529 85.7191 77.1287 88.9859C78.1169 90.0615 79.7508 90.1921 80.902 89.3016C83.8929 86.9564 86.6127 84.2656 88.9904 81.3041C89.9137 80.1581 89.7826 78.4918 88.6924 77.5036C85.2123 74.3535 84.0841 69.3391 85.8913 65.0317C87.59 60.9765 91.6993 58.2537 96.1191 58.2537L96.7375 58.2702C98.1724 58.3865 99.491 57.2816 99.6644 55.8177C100.106 52.0591 100.111 48.2353 99.6861 44.4482ZM50.0007 78.8248C34.0804 78.8248 21.1752 65.9196 21.1752 49.9997C21.1752 34.0798 34.0808 21.1747 50.0007 21.1747C65.9206 21.1747 78.8262 34.0798 78.8262 49.9997C78.8262 55.4034 77.3363 60.4576 74.7489 64.7796L62.127 52.1573C63.0408 50.0028 63.5234 47.667 63.523 45.2565C63.523 40.5361 61.6846 36.0986 58.3464 32.7613C55.0091 29.4239 50.5715 27.586 45.8521 27.586C44.277 27.586 42.7093 27.7953 41.1927 28.2083C40.5284 28.3895 39.9852 28.937 39.8084 29.6025C39.6276 30.2832 39.8313 30.9808 40.3632 31.5132C40.3632 31.5132 46.5946 37.7926 48.6795 39.877C48.8979 40.0954 48.8975 40.6165 48.8668 40.8042L48.8473 40.9413C48.6371 43.2334 48.2319 45.9847 47.8976 47.0421C47.8526 47.0866 47.8103 47.1243 47.7644 47.1701C47.7164 47.2181 47.6723 47.2644 47.626 47.312C46.5548 47.6558 43.7611 48.0657 41.4327 48.2742L41.4331 48.2616L41.3285 48.288C41.3099 48.2902 41.2753 48.2928 41.2294 48.2928C40.9778 48.2928 40.6076 48.2223 40.2711 47.8863C38.101 45.7162 32.114 39.7719 32.114 39.7719C31.5768 39.2365 31.0259 39.1241 30.6587 39.1241C29.8029 39.1241 29.0366 39.7425 28.7952 40.6295C27.1471 46.7286 28.8943 53.289 33.356 57.7512C36.6942 61.089 41.1321 62.9269 45.8525 62.9269C48.263 62.9269 50.5988 62.4447 52.7529 61.5309L65.5119 74.2899C61.0324 77.1563 55.7131 78.8248 50.0007 78.8248Z" fill="#323534"/>
</g>
<defs>
<clipPath id="clip0">
<rect width="100" height="100" fill="white"/>
</clipPath>
</defs>
</svg>
