<svg width="20" height="20" viewBox="0 0 20 20" fill="none" xmlns="http://www.w3.org/2000/svg">
<path d="M9.99998 10.0002C9.08331 10.0002 8.33331 9.2502 8.33331 8.33354C8.33331 7.41687 9.08331 6.66687 9.99998 6.66687C10.9166 6.66687 11.6666 7.41687 11.6666 8.33354C11.6666 9.2502 10.9166 10.0002 9.99998 10.0002ZM15 8.5002C15 5.4752 12.7916 3.33354 9.99998 3.33354C7.20831 3.33354 4.99998 5.4752 4.99998 8.5002C4.99998 10.4502 6.62498 13.0335 9.99998 16.1169C13.375 13.0335 15 10.4502 15 8.5002ZM9.99998 1.66687C13.5 1.66687 16.6666 4.3502 16.6666 8.5002C16.6666 11.2669 14.4416 14.5419 9.99998 18.3335C5.55831 14.5419 3.33331 11.2669 3.33331 8.5002C3.33331 4.3502 6.49998 1.66687 9.99998 1.66687Z" fill="#323534"/>
</svg>
