<svg width="100" height="100" viewBox="0 0 100 100" fill="none" xmlns="http://www.w3.org/2000/svg">
<g clip-path="url(#clip0)">
<path d="M94.0679 47.5719C92.8971 47.0625 92.1193 46.0358 91.9346 44.7552C91.7483 43.4644 92.2096 42.2482 93.2004 41.4185C96.6718 38.5117 97.7292 33.7874 95.8312 29.6627C93.9511 25.5762 89.7214 23.3257 85.3025 24.0632C84.0617 24.2702 82.8732 23.8399 82.041 22.8833C81.1848 21.8992 80.9192 20.6171 81.312 19.3664C82.675 15.0266 81.0225 10.4728 77.2003 8.03498C73.4199 5.62369 68.652 6.03677 65.3355 9.0623C64.3976 9.91775 63.1656 10.2054 61.9545 9.85135C60.725 9.49178 59.8268 8.56621 59.4903 7.31214C58.3165 2.93937 54.5027 0.00134277 50.0001 0.00134277C45.4976 0.00134277 41.6838 2.93937 40.51 7.31214C40.1733 8.56641 39.2751 9.49198 38.0456 9.85154C36.8347 10.2054 35.6027 9.91814 34.6648 9.06249C31.3481 6.03697 26.58 5.62428 22.8 8.03517C18.9778 10.473 17.3255 15.0268 18.6884 19.3666C19.0811 20.6175 18.8155 21.8995 17.9593 22.8837C17.1269 23.8405 15.938 24.2706 14.6976 24.0636C10.2803 23.3265 6.04916 25.5766 4.16893 29.6629C2.27111 33.7876 3.32832 38.5119 6.79993 41.4189C7.79073 42.2484 8.25205 43.4646 8.06573 44.7553C7.88077 46.036 7.10325 47.0627 5.93237 47.5721C1.79886 49.3703 -0.541917 53.5911 0.107485 58.0746C0.754542 62.5425 4.18319 65.9137 8.63876 66.4631C9.89323 66.6178 10.9188 67.3741 11.4526 68.5379C11.9979 69.7271 11.8951 71.0318 11.1709 72.1173C8.6495 75.8965 8.96219 80.7343 11.9489 84.1554C14.8994 87.5352 19.5874 88.4893 23.6144 86.5291C24.747 85.978 26.0058 86.0516 27.0681 86.7317C28.1581 87.4293 28.7675 88.5801 28.7401 89.8885C28.6448 94.4304 31.4955 98.3315 35.8341 99.5959C36.7663 99.8676 37.706 99.9988 38.63 99.9988C41.9778 99.9988 45.1197 98.2744 46.9544 95.2557C47.6214 94.1585 48.7313 93.5294 50.0001 93.5294C51.269 93.5294 52.3791 94.1587 53.0459 95.2557C55.3873 99.1076 59.8567 100.852 64.1662 99.5957C68.5048 98.3313 71.3557 94.4304 71.2602 89.8883C71.2327 88.5799 71.842 87.4291 72.9322 86.7315C73.9943 86.0518 75.2533 85.9776 76.3861 86.5289C80.4127 88.4891 85.1007 87.535 88.0517 84.1552C91.0385 80.7339 91.3512 75.8961 88.8296 72.1169C88.1054 71.0314 88.0028 69.7267 88.5479 68.5377C89.0815 67.3739 90.1071 66.6174 91.3617 66.4627C95.8173 65.9133 99.2458 62.5423 99.893 58.0744C100.542 53.5911 98.2013 49.3703 94.0679 47.5719ZM40.6252 28.1254C44.0715 28.1254 46.8751 30.9291 46.8751 34.3753C46.8751 37.8215 44.0715 40.6252 40.6252 40.6252C37.179 40.6252 34.3754 37.8215 34.3754 34.3753C34.3754 30.9291 37.179 28.1254 40.6252 28.1254ZM59.3749 71.8745C55.9287 71.8745 53.125 69.0709 53.125 65.6247C53.125 62.1785 55.9287 59.3748 59.3749 59.3748C62.8211 59.3748 65.6248 62.1785 65.6248 65.6247C65.6248 69.0709 62.8209 71.8745 59.3749 71.8745ZM67.8343 36.585L36.5849 67.8344C35.9748 68.4447 35.175 68.7498 34.3754 68.7498C33.5758 68.7498 32.776 68.4447 32.1658 67.8344C30.9454 66.6141 30.9454 64.6354 32.1658 63.4151L63.4152 32.1658C64.6355 30.9453 66.6142 30.9453 67.8345 32.1658C69.0548 33.386 69.0548 35.3647 67.8343 36.585Z" fill="#323534"/>
</g>
<defs>
<clipPath id="clip0">
<rect width="100" height="100" fill="white"/>
</clipPath>
</defs>
</svg>
