<svg width="36" height="33" fill="none" xmlns="http://www.w3.org/2000/svg"><path d="M13 32a1 1 0 100-2 1 1 0 000 2zm17 0a1 1 0 100-2 1 1 0 000 2zM1 1.267h5.519l4.139 23.8h22.075" stroke="#323534" stroke-width="2" stroke-linecap="round" stroke-linejoin="round"/><path d="M10.535 19.4h21.32a.73.73 0 00.433-.141.617.617 0 00.237-.36l2.462-11.22a.57.57 0 00-.007-.273.604.604 0 00-.135-.245.68.68 0 00-.237-.168.74.74 0 00-.292-.06H7.8" stroke="#323534" stroke-width="2" stroke-linecap="round" stroke-linejoin="round"/></svg>