<svg width="130" height="130" fill="none" xmlns="http://www.w3.org/2000/svg"><path d="M69.569 99.065L58.176 78.993l47.197-49.908-22.785 56.96-13.02 13.02z" fill="#A67D0C"/><path d="M105.915 28.543l-47.739 50.45L33.222 71.4l72.693-42.856zM107 93.64L69.569 82.249 107 28.542v65.099z" fill="#FACE50"/><path d="M107 28v65.64l-24.412-7.43M107 28L58.176 78.993M107 28L69.569 82.248M107 28L75.536 46.373m-5.967 35.875v17.36m0-17.36l13.02 3.963m-13.02 13.397L58.176 78.993M69.57 99.608l13.02-13.397m-24.413-7.218L32.68 71.4l30.379-17.74M48.412 86.211L32.195 102.32M23.457 111l2.185-2.17 2.184-2.17M44.614 111l1.628-1.627M57.634 97.98l-8.137 8.138m28.751 0l8.138-8.138M68.484 50.491l1.085-.633" stroke="#1B1E1D" stroke-width="2" stroke-linecap="round" stroke-linejoin="round"/></svg>