<svg width="32" height="32" fill="none" xmlns="http://www.w3.org/2000/svg"><path d="M9.602 25.6a3.185 3.185 0 00-3.184 3.2 3.185 3.185 0 003.184 3.199 3.199 3.199 0 100-6.4zm1.759-8h11.92a3.21 3.21 0 002.8-1.648L31.8 5.57c.128-.224.2-.488.2-.768a1.6 1.6 0 00-1.6-1.6H6.745L5.4.367A.64.64 0 004.821 0h-3.22a1.6 1.6 0 000 3.2h1.6l5.752 12.135-2.16 3.92a3.253 3.253 0 00-.392 1.544 3.2 3.2 0 003.2 3.2H27.2a1.6 1.6 0 000-3.2H10.281a.396.396 0 01-.4-.4.38.38 0 01.048-.192l1.432-2.608zm14.239 8a3.185 3.185 0 00-3.184 3.2 3.185 3.185 0 003.184 3.199 3.199 3.199 0 100-6.4z" fill="#FACE50"/></svg>