<svg width="40" height="40" fill="none" xmlns="http://www.w3.org/2000/svg"><path d="M35.9 18.223c-.051-.45-.576-.788-1.03-.788-1.465 0-2.767-.86-3.312-2.192a3.564 3.564 0 01.895-3.956.89.89 0 00.097-1.207 15.841 15.841 0 00-2.535-2.56.891.891 0 00-1.216.098c-.953 1.056-2.667 1.449-3.99.897a3.554 3.554 0 01-2.161-3.474.888.888 0 00-.786-.935 15.967 15.967 0 00-3.6-.01.89.89 0 00-.792.916 3.56 3.56 0 01-2.19 3.414c-1.309.534-3.01.145-3.962-.902a.892.892 0 00-1.207-.101 15.907 15.907 0 00-2.588 2.559.89.89 0 00.095 1.216 3.546 3.546 0 01.895 3.992c-.553 1.315-1.918 2.163-3.482 2.163a.87.87 0 00-.924.786 16.039 16.039 0 00-.007 3.638c.05.451.59.787 1.05.787 1.393-.035 2.73.827 3.292 2.192a3.56 3.56 0 01-.895 3.957.888.888 0 00-.097 1.205 15.899 15.899 0 002.53 2.561.89.89 0 001.219-.096c.957-1.059 2.67-1.45 3.988-.897a3.549 3.549 0 012.165 3.472.888.888 0 00.785.935 15.87 15.87 0 003.6.01.89.89 0 00.792-.916 3.556 3.556 0 012.19-3.413c1.316-.537 3.01-.144 3.962.902a.894.894 0 001.207.1 15.928 15.928 0 002.589-2.559.889.889 0 00-.095-1.216 3.545 3.545 0 01-.897-3.99 3.581 3.581 0 013.273-2.17l.198.006c.46.037.881-.317.937-.785.14-1.203.142-2.427.007-3.639zM20 29.224a9.224 9.224 0 110-18.448 9.224 9.224 0 017.92 13.954l-4.04-4.04a5.64 5.64 0 00.447-2.208c0-1.51-.588-2.93-1.656-3.998a5.618 5.618 0 00-3.999-1.657c-.504 0-1.005.067-1.49.2a.64.64 0 00-.444.446.625.625 0 00.178.611s1.994 2.01 2.661 2.677c.07.07.07.236.06.296l-.006.044c-.067.734-.197 1.614-.304 1.953l-.043.04-.044.046c-.343.11-1.237.241-1.982.308v-.004l-.033.008a.426.426 0 01-.338-.129c-.695-.694-2.61-2.596-2.61-2.596a.651.651 0 00-.467-.207.633.633 0 00-.596.481 5.674 5.674 0 001.46 5.48 5.62 5.62 0 003.998 1.656 5.65 5.65 0 002.209-.447l4.083 4.083A9.178 9.178 0 0120 29.224z" fill="#FACE50"/></svg>