<svg width="100" height="100" fill="none" xmlns="http://www.w3.org/2000/svg"><g clip-path="url(#clip0)" fill="#323534"><path d="M85.417 56.9c-8.042 0-14.584 6.542-14.584 14.584 0 8.041 6.542 14.583 14.584 14.583 8.041 0 14.583-6.542 14.583-14.583 0-8.042-6.542-14.584-14.583-14.584zm0 20.834a6.258 6.258 0 01-6.25-6.25 6.258 6.258 0 016.25-6.25 6.258 6.258 0 016.25 6.25 6.258 6.258 0 01-6.25 6.25zm-48.8-11.113a2.075 2.075 0 00-1.963-1.387H22.917a6.258 6.258 0 016.25 6.25 6.258 6.258 0 01-6.25 6.25 6.258 6.258 0 01-6.25-6.25 6.258 6.258 0 016.25-6.25H11.183c-.883 0-1.67.554-1.962 1.387-.6 1.684-.888 3.271-.888 4.863 0 8.041 6.542 14.583 14.584 14.583 8.041 0 14.583-6.542 14.583-14.583 0-1.592-.288-3.18-.883-4.863zm7.133-30.554H14.583a6.258 6.258 0 00-6.25 6.25 6.258 6.258 0 006.25 6.25H43.75a6.258 6.258 0 006.25-6.25 6.258 6.258 0 00-6.25-6.25zm21.638 4.325a2.09 2.09 0 00-2.726 1.12l-10.416 25a2.084 2.084 0 003.846 1.605l10.416-25a2.084 2.084 0 00-1.12-2.725z"/><path d="M42.763 53.475a2.082 2.082 0 00-1.596-.741H14.583c-2.42 0-4.72-.859-6.654-2.484a2.088 2.088 0 00-2.858.167 23.57 23.57 0 00-1.113 1.266C1.404 54.825 0 58.896 0 63.15a6.258 6.258 0 006.25 6.25h33.333a2.08 2.08 0 002.075-1.908c.005-.067.567-6.634 1.563-12.317a2.094 2.094 0 00-.458-1.7zm27.841-34.858a3.538 3.538 0 00-2.667 4.591l.009.021a3.536 3.536 0 003.358 2.421H75l2.083-8.333-6.479 1.3z"/><path d="M78.592 15.88a2.086 2.086 0 00-1.917-.605l-6.483 1.296a5.624 5.624 0 00-4.225 7.317 5.62 5.62 0 005.337 3.846H75c.954 0 1.787-.65 2.02-1.58l2.084-8.333a2.08 2.08 0 00-.512-1.942zm-5.217 7.687h-2.07c-.63 0-1.188-.404-1.393-1.021a1.426 1.426 0 01.121-1.192 1.44 1.44 0 01.975-.7l3.255-.65-.888 3.563z"/><path d="M85.416 48.567c-4.504 0-6.304-4.688-6.42-4.988L67.987 17.892c-1.266-2.963-4.446-4.538-7.587-3.763a6.538 6.538 0 00-4.138 3.192 6.55 6.55 0 00-.47 5.208l2.078 6.242 5.7-3.421a2.085 2.085 0 012.859.712c.591.988.27 2.267-.713 2.859l-6.491 3.896 3.383 10.154c.08.233.196.45.346.641l3.733 4.671c1.809 2.259 1.855 5.4.117 7.646-1.18 1.521-2.13 3.096-2.83 4.68a6.228 6.228 0 00.488 5.937 6.248 6.248 0 005.246 2.85h3.209c1.15 0 2.083-.934 2.083-2.084 0-.429-.158-.804-.383-1.133l9.096-6.063c.362.542.941.93 1.646.95 4.2.13 11.583 0 13.733-2.087.587-.57.908-1.313.908-2.08 0-4.29-8.217-8.332-14.584-8.332z"/><path d="M64.283 22.492a2.081 2.081 0 00-2.858-.713l-10.417 6.25a2.086 2.086 0 001.075 3.871c.367 0 .738-.096 1.071-.3l10.417-6.25a2.087 2.087 0 00.712-2.858zM54.167 65.234H39.583a2.084 2.084 0 000 4.166h14.584a2.084 2.084 0 000-4.166z"/></g><defs><clipPath id="clip0"><path fill="#fff" d="M0 0h100v100H0z"/></clipPath></defs></svg>