<svg width="40" height="40" fill="none" xmlns="http://www.w3.org/2000/svg"><path d="M11.005 17.794v4.412c0 .732-.595 1.328-1.327 1.328H5.267a1.329 1.329 0 01-1.328-1.328v-4.412c0-.733.595-1.327 1.328-1.327h4.41c.734 0 1.328.596 1.328 1.328zm23.725-1.327H15.01c-.732 0-1.328.594-1.328 1.328v4.411a1.33 1.33 0 001.328 1.328h19.721a1.33 1.33 0 001.328-1.328v-4.412a1.33 1.33 0 00-1.329-1.327zM9.678 6.4H5.267c-.733 0-1.328.594-1.328 1.327v4.412c0 .734.595 1.328 1.328 1.328h4.41c.734 0 1.328-.594 1.328-1.328V7.727c0-.731-.595-1.327-1.327-1.327zm25.052 0H15.01c-.732 0-1.328.594-1.328 1.327v4.412c0 .734.596 1.328 1.328 1.328h19.721c.733 0 1.328-.594 1.328-1.328V7.727A1.33 1.33 0 0034.73 6.4zM9.678 26.535H5.267c-.733 0-1.328.594-1.328 1.328v4.41c0 .735.595 1.328 1.328 1.328h4.41c.734 0 1.328-.593 1.328-1.328v-4.41c0-.734-.595-1.328-1.327-1.328zm25.052 0H15.01c-.732 0-1.328.594-1.328 1.328v4.41c0 .735.596 1.328 1.328 1.328h19.721c.733 0 1.328-.593 1.328-1.328v-4.41a1.329 1.329 0 00-1.329-1.328z" fill="#FACE50"/></svg>