<svg width="100" height="100" fill="none" xmlns="http://www.w3.org/2000/svg"><path d="M42.188 50.195c10.833 0 19.73 8.444 20.458 19.097l5.676-3.081h16.834c8.185 0 14.844-6.659 14.844-14.844 0-8.185-6.659-14.844-14.844-14.844H66.84l-8.322-8.321-4.143 4.143 6.467 6.467-9.666 5.524H11.719v6.07a20.62 20.62 0 012.93-.21h27.538z" fill="#323534"/><path d="M42.188 56.055h-27.54C6.571 56.055 0 62.625 0 70.703c0 8.077 6.571 14.649 14.648 14.649h27.54c8.077 0 14.648-6.572 14.648-14.649 0-8.077-6.571-14.648-14.648-14.648zm-27.54 17.578a2.93 2.93 0 110-5.859 2.93 2.93 0 010 5.859zm27.54 0a2.93 2.93 0 110-5.86 2.93 2.93 0 010 5.86zm24.609-59.18h-2.93v16.211h20.455c-.7-9.056-8.293-16.21-17.525-16.21zm19.524 64.984l-3.007-7.367H69.81l-3.72 2.02 2.206 5.402h-8.53v5.86h25.586c8.077 0 14.648-6.572 14.648-14.649h-5.86c0 4.519-3.427 8.25-7.819 8.734zM40.039 30.664h-.41l-2.226.636a15.288 15.288 0 01-8.4 0l-2.225-.636h-.41c-4.517 0-8.247 3.424-8.734 7.813h31.138c-.487-4.389-4.217-7.813-8.733-7.813z" fill="#323534"/></svg>