<svg width="20" height="20" fill="none" xmlns="http://www.w3.org/2000/svg"><g clip-path="url(#clip0)"><path d="M19.584 14.417L12.522 2.589A2.909 2.909 0 0010 1.153 2.909 2.909 0 007.478 2.59L.416 14.417a2.901 2.901 0 00-.028 2.948 2.901 2.901 0 002.55 1.482h14.124a2.901 2.901 0 002.55-1.482 2.902 2.902 0 00-.028-2.948zM10 4.769c.648 0 1.173.526 1.173 1.173v4.693a1.173 1.173 0 01-2.346 0V5.942c0-.647.525-1.173 1.173-1.173zm0 11.732c-.97 0-1.76-.79-1.76-1.76s.79-1.76 1.76-1.76 1.76.79 1.76 1.76-.79 1.76-1.76 1.76z" fill="#FACE50"/></g><defs><clipPath id="clip0"><path fill="#fff" d="M0 0h20v20H0z"/></clipPath></defs></svg>