<svg width="17" height="19" fill="none" xmlns="http://www.w3.org/2000/svg"><path fill-rule="evenodd" clip-rule="evenodd" d="M16.718 7.528C16.01 3.546 12.701.873 8.673.76h-.067a1.532 1.532 0 00-.166 0c-.286.016-.54.255-.486.555.06.338.4.372.68.4l.049.005c.141.015.284.027.426.04.314.027.629.054.938.11 2.987.532 5.38 3.014 5.796 6.014.063.454.094.912.125 1.37l.024.348c.021.29.167.56.49.555.312-.003.476-.279.454-.568l-.02-.252v-.003c-.046-.605-.092-1.211-.198-1.806zM13.096 18.15c.105.03.212.059.32.091.092-.028.186-.052.28-.076.202-.051.403-.102.58-.197.917-.493 1.552-1.264 1.989-2.192.238-.506.093-.996-.331-1.369-.41-.361-.851-.675-1.296-.991l-.098-.07c-.487-.347-.976-.69-1.481-1.01-.505-.32-1.105-.314-1.573.069-.17.138-.307.322-.443.504-.251.334-.5.667-.943.719-.372.043-.701-.095-1.025-.232a13.902 13.902 0 00-.095-.04c-2.217-.922-3.567-2.635-4.369-4.838a.982.982 0 01.065-.86c.089-.143.21-.25.34-.357l.086-.071c.118-.099.236-.197.362-.283.65-.442.749-1.235.39-1.884-.583-1.054-1.303-2.011-2.087-2.921-.363-.42-.853-.558-1.35-.32-.636.306-1.223.72-1.68 1.262-.486.578-.948 1.37-.635 2.136l.107.26c.308.755.616 1.51.976 2.24.844 1.717 1.843 3.339 3.12 4.776 2.245 2.526 5.079 4.174 8.158 5.452.201.083.413.142.633.202zm1.698-9.454l-.005.05c-.005.06-.012.147-.034.23-.107.404-.72.455-.862.047a1.22 1.22 0 01-.048-.39c-.001-.852-.187-1.705-.617-2.447a4.555 4.555 0 00-1.91-1.792 5.496 5.496 0 00-1.523-.467 10.335 10.335 0 00-.43-.06 11.02 11.02 0 01-.262-.033c-.28-.04-.429-.217-.415-.493.012-.258.2-.444.482-.428.924.053 1.817.253 2.639.688 1.67.885 2.626 2.282 2.904 4.147l.016.09c.01.054.02.108.023.163.011.147.02.294.03.465l.012.23zm-3.057-.588c.035.309.215.495.552.49.154-.011.31-.117.36-.33.028-.12.017-.252.006-.378l-.002-.013c-.159-1.838-1.275-2.645-2.836-2.758a.484.484 0 00-.511.389c-.042.251.106.468.374.534.115.028.233.039.351.05.134.012.268.024.4.062.194.056.38.143.544.262.347.253.566.636.667 1.049.045.18.065.367.085.553l.01.09z" fill="#323534"/></svg>