<svg width="40" height="40" fill="none" xmlns="http://www.w3.org/2000/svg"><path fill-rule="evenodd" clip-rule="evenodd" d="M30.181 29.267c-.691 0-1.334.18-1.91.473L27.13 28.4a5.667 5.667 0 011.63-.65 6.956 6.956 0 011.426-.15 2.424 2.424 0 001.71-.694c.483-.472.76-1.128.76-1.905 0-4.268-3.64-7.402-7.484-7.402h-.953a.838.838 0 00-.844.833c0 .46.378.834.844.834h.953c.197 0 .386.026.575.052l.16.021v1.61a4.23 4.23 0 00-1.389.395.083.083 0 00-.009-.008l-.009-.01c-.692.32-1.29.821-1.722 1.462l-1.92 2.845a.847.847 0 01-.575.361 5.314 5.314 0 00-3.966 2.905 6.572 6.572 0 011.152 3.7h-1.744c0-2.757-2.27-5-5.063-5-2.791 0-5.062 2.243-5.062 5s2.27 5 5.063 5a5.05 5.05 0 004.751-3.334h7.961a.838.838 0 00.844-.833c0-.463.056-.936.165-1.404.23-.973.743-1.86 1.43-2.583l1.14 1.337c-.61.723-.992 1.639-.992 2.65 0 2.297 1.893 4.167 4.22 4.167 2.325 0 4.218-1.87 4.218-4.167 0-2.297-1.893-4.166-4.219-4.166zm-19.519 6.666c-1.86 0-3.375-1.495-3.375-3.333s1.514-3.334 3.375-3.334c1.862 0 3.375 1.496 3.375 3.334h-2.53a.84.84 0 01-.845-.834.838.838 0 00-.843-.833.838.838 0 00-.844.834c0 1.378 1.136 2.5 2.531 2.5h2.062a3.37 3.37 0 01-2.905 1.666zm19.52 0c-1.396 0-2.532-1.121-2.532-2.5 0-.483.146-.93.387-1.313l1.485 1.834a.852.852 0 001.187.13.828.828 0 00.131-1.172l-1.483-1.831c.26-.09.534-.148.824-.148 1.396 0 2.531 1.122 2.531 2.5 0 1.379-1.135 2.5-2.53 2.5zM19.928 24.006l1.445-2.142a5.847 5.847 0 011.757-1.673c-.926-.578-1.994-.924-3.131-.924a5.942 5.942 0 00-4.92 2.613l1.35.8c1.085.642 2.272 1.072 3.499 1.326zm-9.781-3.073l5.414 3.175c.707.419 1.458.742 2.225 1.019-1.06.566-1.984 1.372-2.639 2.412-.004.007-.006.014-.008.021l-.007.02c-1.876-1.61-3.627-1.647-5.314-1.647-2.326 0-4.219-1.87-4.219-4.166 0-.461.377-.834.844-.834h3.704z" fill="#FACE50"/><path d="M4.833 13.333H34.5a.833.833 0 110 1.667H4.833a.833.833 0 110-1.667zm5.844-2.773v-.381l.387.204.136-.286-.373-.197.237-.167-.168-.266-.382.268-.28-.148.521-.33-.156-.274-.688.434-.285-.15.522-.33a.162.162 0 00.073-.137.162.162 0 00-.073-.137l-.522-.33.285-.15.688.434.156-.274-.522-.33.28-.149.383.269.168-.266-.238-.167.374-.197-.136-.286-.387.204V7.04h-.304v.541l-.303.16V7.04h-.304v.86l-.304.16V7.2a.161.161 0 00-.08-.141.145.145 0 00-.155.008l-.675.474v-.426l.856-.752-.194-.246-.662.581v-.392l.41-.433-.214-.226-.196.207V5.6h-.304v.254l-.196-.207-.215.226.411.433v.392l-.661-.581-.195.246.856.752v.426l-.674-.474a.145.145 0 00-.156-.008.161.161 0 00-.08.14v.862l-.304-.16V7.04H6.73v.701l-.303-.16V7.04h-.304v.381l-.387-.204-.136.286.373.197-.237.167.168.266.382-.269.28.149-.521.33.156.274.688-.435.285.15-.522.33a.162.162 0 00-.073.138c0 .056.028.108.073.137l.522.33-.285.15-.688-.434-.156.274.522.33-.28.148-.383-.268-.168.266.237.167-.373.197.136.286.387-.204v.38h.304v-.54l.303-.16v.7h.304V9.7l.304-.16v.86c0 .06.03.114.08.142a.143.143 0 00.155-.008l.675-.474v.426l-.856.752.194.246.662-.582v.393l-.41.433.214.226.196-.207V12h.304v-.254l.196.207.215-.226-.411-.433V10.9l.661.582.195-.246-.856-.752v-.426l.674.474a.146.146 0 00.156.008.162.162 0 00.08-.141v-.861l.304.16v.86h.303v-.7l.304.16v.54h.304zM9.775 8.8l-.47.297-.566-.297.565-.298.47.298zm-.616-1.301v.722l-.607.32v-.616l.607-.426zm-1.518 0l.607.427v.615l-.607-.32V7.5zm-.616 1.3l.47-.297.565.298-.564.297-.47-.297zm.616 1.302v-.722l.607-.32v.615l-.607.427zm1.518 0l-.607-.427V9.06l.607.32v.722zM21.877 8.16v-.381l.387.204.136-.286-.373-.197.237-.167-.168-.266-.382.268-.28-.148.521-.33-.156-.274-.688.434-.285-.15.522-.33a.162.162 0 00.073-.137.162.162 0 00-.073-.137l-.522-.33.285-.15.688.434.156-.274-.522-.33.28-.149.383.269.168-.266-.238-.167.374-.197-.136-.286-.387.204V4.64h-.304v.541l-.303.16V4.64h-.304v.86l-.304.16V4.8a.162.162 0 00-.08-.141.145.145 0 00-.155.008l-.675.474v-.426l.856-.752-.195-.246-.661.581v-.392l.41-.433-.214-.226-.196.207V3.2h-.304v.254l-.196-.207-.215.226.411.433v.392l-.661-.58-.195.245.856.752v.426l-.674-.474a.145.145 0 00-.156-.008.161.161 0 00-.08.141v.861l-.304-.16V4.64h-.304v.701l-.303-.16V4.64h-.304v.381l-.387-.204-.136.286.373.197-.237.167.168.266.382-.268.28.148-.521.33.156.274.688-.434.285.15-.522.33a.162.162 0 00-.073.137c0 .056.028.108.073.137l.522.33-.285.15-.688-.434-.156.274.522.33-.28.148-.383-.268-.168.266.238.167-.374.197.136.286.387-.204v.381h.304v-.541l.303-.16v.701h.304v-.861l.303-.16v.86c0 .06.031.114.08.142.05.028.11.025.156-.008l.675-.474v.426l-.856.752.195.246.661-.581v.392l-.41.433.214.226.196-.207V9.6h.304v-.254l.196.207.215-.226-.411-.433v-.392l.661.58.195-.245-.856-.752v-.426l.674.474a.146.146 0 00.156.008.162.162 0 00.08-.141v-.861l.304.16v.86h.303v-.7l.304.16v.541h.304zm-.902-1.76l-.47.298-.566-.298.565-.298.47.298zm-.616-1.301v.722l-.607.32v-.615l.607-.427zm-1.518 0l.607.427v.615l-.607-.32V5.1zm-.616 1.3l.47-.297.566.298-.565.298-.47-.298zm.616 1.302v-.722l.607-.32v.615l-.607.427zm1.518 0l-.607-.427V6.66l.607.32v.72zm11.918 2.859v-.381l.387.204.136-.286-.373-.197.237-.167-.168-.266-.382.268-.28-.148.521-.33-.156-.274-.688.434-.285-.15.522-.33a.162.162 0 00.073-.137.162.162 0 00-.073-.137l-.522-.33.285-.15.688.434.156-.274-.522-.33.28-.149.383.269.168-.266-.238-.167.374-.197-.136-.286-.387.204V7.04h-.304v.541l-.303.16V7.04h-.304v.86l-.303.16V7.2a.162.162 0 00-.08-.141.145.145 0 00-.156.008l-.675.474v-.426l.856-.752-.194-.246-.662.581v-.392l.41-.433-.214-.226-.196.207V5.6h-.304v.254l-.196-.207-.215.226.411.433v.392l-.661-.581-.195.246.856.752v.426l-.674-.474a.145.145 0 00-.156-.008.161.161 0 00-.08.14v.862l-.304-.16V7.04h-.303v.701l-.304-.16V7.04h-.304v.381l-.387-.204-.136.286.373.197-.238.167.169.266.382-.269.28.149-.521.33.156.274.688-.435.285.15-.522.33a.162.162 0 00-.073.138c0 .056.028.108.073.137l.522.33-.285.15-.688-.434-.156.274.522.33-.28.148-.383-.268-.168.266.238.167-.374.197.136.286.387-.204v.38h.304v-.54l.303-.16v.7h.304V9.7l.304-.16v.86c0 .06.03.114.08.142a.143.143 0 00.155-.008l.675-.474v.426l-.856.752.194.246.662-.582v.393l-.41.433.214.226.196-.207V12h.304v-.254l.196.207.215-.226-.411-.433V10.9l.661.582.195-.246-.856-.752v-.426l.674.474a.146.146 0 00.156.008.162.162 0 00.08-.141v-.861l.304.16v.86h.304v-.7l.303.16v.54h.304zm-.902-1.76l-.47.297-.566-.297.565-.298.47.298zm-.616-1.301v.722l-.607.32v-.616l.607-.426zm-1.518 0l.607.427v.615l-.607-.32V7.5zm-.616 1.3l.47-.297.566.298-.565.297-.47-.297zm.616 1.302v-.722l.607-.32v.615l-.607.427zm1.518 0l-.607-.427V9.06l.607.32v.722zM14.4 10.4a.8.8 0 100-1.6.8.8 0 000 1.6zm12-4.8a.8.8 0 100-1.6.8.8 0 000 1.6zM23.2 12a.8.8 0 100-1.6.8.8 0 000 1.6zm-12-7.2a.8.8 0 100-1.6.8.8 0 000 1.6z" fill="#FACE50"/></svg>