<svg width="100" height="100" fill="none" xmlns="http://www.w3.org/2000/svg"><g clip-path="url(#clip0)" fill="#323534"><path d="M85.352 55.86c-2.4 0-4.635.635-6.636 1.663l-3.96-4.706c1.756-1.038 3.655-1.836 5.662-2.285 1.637-.369 3.259-.504 4.95-.529a8.365 8.365 0 005.94-2.438c1.676-1.659 2.637-3.968 2.637-6.697 0-15.005-12.64-26.024-25.986-26.024h-3.31a2.928 2.928 0 00-2.93 2.93c0 1.618 1.31 2.93 2.93 2.93h3.31c.873 0 1.705.15 2.549.258v5.66c-1.701.155-3.304.681-4.82 1.387-.019-.022-.043-.037-.062-.059a14.61 14.61 0 00-5.979 5.136l-6.669 10.002a2.937 2.937 0 01-1.994 1.27c-5.93.912-11.072 4.693-13.772 10.214 2.502 3.74 3.999 8.196 3.999 13.006h-6.055C35.156 57.885 27.271 50 17.578 50S0 57.885 0 67.578s7.885 17.578 17.578 17.578c7.629 0 14.072-4.913 16.499-11.719h27.642c1.619 0 2.93-1.31 2.93-2.93 0-1.627.194-3.29.575-4.937.798-3.421 2.577-6.534 4.965-9.078l3.954 4.699c-2.115 2.54-3.44 5.76-3.44 9.317 0 8.076 6.572 14.648 14.649 14.648 8.076 0 14.648-6.572 14.648-14.648 0-8.077-6.572-14.649-14.648-14.649zM17.578 79.296c-6.463 0-11.719-5.256-11.719-11.719 0-6.463 5.256-11.719 11.72-11.719 6.462 0 11.718 5.256 11.718 11.72h-8.79a2.931 2.931 0 01-2.929-2.93c0-1.62-1.31-2.93-2.93-2.93a2.928 2.928 0 00-2.93 2.93c0 4.846 3.944 8.788 8.79 8.788h7.16c-2.033 3.486-5.77 5.86-10.09 5.86zm67.774 0c-4.847 0-8.79-3.943-8.79-8.79 0-1.697.506-3.27 1.343-4.615l5.158 6.447a2.933 2.933 0 004.12.458 2.934 2.934 0 00.457-4.12l-5.151-6.44c.902-.313 1.855-.518 2.863-.518 4.846 0 8.789 3.943 8.789 8.789s-3.943 8.789-8.79 8.789z"/><path d="M49.753 37.365l5.02-7.53c1.604-2.407 3.708-4.364 6.098-5.883-3.215-2.03-6.921-3.249-10.871-3.249-6.922 0-13.316 3.529-17.08 9.187l4.686 2.813c3.764 2.258 7.887 3.77 12.147 4.662zm-15.163.361l-18.8-11.163H2.93A2.928 2.928 0 000 29.492C0 37.568 6.572 44.14 14.648 44.14c5.86 0 11.94.127 18.453 5.789.025-.047.025-.1.053-.144 2.273-3.655 5.482-6.488 9.16-8.48-2.663-.974-5.27-2.11-7.723-3.58z"/></g><defs><clipPath id="clip0"><path fill="#fff" d="M0 0h100v100H0z"/></clipPath></defs></svg>