<svg width="100" height="100" fill="none" xmlns="http://www.w3.org/2000/svg"><g clip-path="url(#clip0)"><path d="M99.686 44.448c-.158-1.405-1.797-2.463-3.215-2.463-4.581 0-8.647-2.689-10.353-6.85-1.74-4.263-.617-9.232 2.796-12.364A2.779 2.779 0 0089.22 19a49.495 49.495 0 00-7.92-8 2.785 2.785 0 00-3.8.308c-2.981 3.3-8.334 4.527-12.471 2.8-4.304-1.81-7.02-6.172-6.753-10.855A2.774 2.774 0 0055.82.333a49.896 49.896 0 00-11.25-.03 2.784 2.784 0 00-2.474 2.861c.162 4.637-2.585 8.922-6.847 10.668-4.087 1.67-9.404.452-12.378-2.82a2.787 2.787 0 00-3.773-.316 49.706 49.706 0 00-8.088 7.998 2.782 2.782 0 00.298 3.798c3.48 3.153 4.603 8.165 2.796 12.477-1.726 4.11-5.994 6.758-10.88 6.758-1.585-.05-2.713 1.014-2.888 2.456a50.121 50.121 0 00-.022 11.37c.158 1.41 1.846 2.459 3.28 2.459 4.354-.11 8.533 2.584 10.288 6.85 1.747 4.263.623 9.23-2.797 12.366a2.776 2.776 0 00-.303 3.766 49.673 49.673 0 007.909 8.003 2.78 2.78 0 003.806-.302c2.992-3.308 8.344-4.532 12.464-2.803 4.316 1.806 7.031 6.168 6.766 10.852a2.775 2.775 0 002.453 2.92 49.57 49.57 0 0011.25.03 2.782 2.782 0 002.474-2.862c-.168-4.634 2.585-8.92 6.842-10.662 4.115-1.68 9.407-.45 12.383 2.816a2.792 2.792 0 003.773.316 49.77 49.77 0 008.088-7.998 2.777 2.777 0 00-.298-3.8c-3.48-3.15-4.608-8.165-2.8-12.472 1.698-4.055 5.807-6.778 10.227-6.778l.618.016c1.435.116 2.754-.988 2.927-2.452.442-3.759.447-7.583.022-11.37zM50.001 78.825C34.08 78.825 21.175 65.92 21.175 50s12.906-28.825 28.826-28.825S78.826 34.08 78.826 50a28.68 28.68 0 01-4.077 14.78L62.127 52.157a17.628 17.628 0 001.396-6.9c0-4.72-1.838-9.158-5.177-12.496a17.554 17.554 0 00-12.494-5.175c-1.575 0-3.143.21-4.66.622a2.001 2.001 0 00-1.384 1.395c-.18.68.023 1.378.555 1.91 0 0 6.232 6.28 8.316 8.364.219.218.218.74.188.927l-.02.137c-.21 2.292-.615 5.044-.95 6.101-.044.045-.087.082-.133.128l-.138.142c-1.071.344-3.865.754-6.193.962v-.012l-.105.026a1.332 1.332 0 01-1.057-.402c-2.17-2.17-8.157-8.114-8.157-8.114-.537-.535-1.088-.648-1.455-.648-.856 0-1.622.618-1.864 1.505a17.73 17.73 0 004.561 17.122 17.558 17.558 0 0012.496 5.176 17.62 17.62 0 006.9-1.396l12.76 12.759A28.68 28.68 0 0150 78.825z" fill="#323534"/></g><defs><clipPath id="clip0"><path fill="#fff" d="M0 0h100v100H0z"/></clipPath></defs></svg>