<svg width="100" height="100" fill="none" xmlns="http://www.w3.org/2000/svg"><path d="M72.653 61.44a2.32 2.32 0 01-1.227-2.046v-2.322h-16.25a2.32 2.32 0 01-2.323-2.322v-9.286a2.32 2.32 0 012.322-2.322h16.252v-2.321a2.32 2.32 0 013.61-1.932l13.93 9.286a2.321 2.321 0 010 3.864l-13.93 9.286c-.72.48-1.639.515-2.384.116zm-5.87-48.788v25.847H55.175c-.835 0-1.579.139-2.322.417V26.581c0-2.6-1.439-4.968-3.853-6.221L28.987 10.33h35.475c1.3 0 2.321 1.021 2.321 2.322zM55.175 61.715h11.608v16.251c0 1.3-1.02 2.322-2.321 2.322H52.853v-18.99a6.438 6.438 0 002.322.417z" fill="#323534"/><path d="M46.91 24.492l-27.86-13.93c-.695-.325-1.578-.325-2.228.093-.696.464-1.114 1.207-1.114 1.997v65.314c0 1.022.65 1.904 1.579 2.183l27.86 9.287c.683.273 1.559.118 2.088-.28.604-.463.976-1.16.976-1.902V26.58c0-.882-.51-1.672-1.3-2.089zM38.925 54.75a2.3 2.3 0 01-2.322 2.322 2.3 2.3 0 01-2.321-2.322v-9.286a2.3 2.3 0 012.321-2.322 2.3 2.3 0 012.322 2.322v9.286z" fill="#323534"/></svg>