<svg width="100" height="100" fill="none" xmlns="http://www.w3.org/2000/svg"><g clip-path="url(#clip0)"><path d="M97.92 72.084L62.61 12.943C59.941 8.449 55.227 5.765 50 5.765c-5.227 0-9.942 2.684-12.611 7.178L2.082 72.083c-2.726 4.589-2.778 10.1-.14 14.74 2.644 4.642 7.407 7.412 12.748 7.412h70.62c5.34 0 10.104-2.77 12.747-7.413 2.638-4.64 2.587-10.15-.137-14.738zM50 23.846a5.865 5.865 0 015.865 5.866v23.463a5.866 5.866 0 01-11.73 0V29.712A5.865 5.865 0 0150 23.846zm0 58.657c-4.852 0-8.799-3.947-8.799-8.798 0-4.852 3.947-8.799 8.799-8.799 4.852 0 8.798 3.947 8.798 8.799 0 4.852-3.947 8.798-8.798 8.798z" fill="#323534"/></g><defs><clipPath id="clip0"><path fill="#fff" d="M0 0h100v100H0z"/></clipPath></defs></svg>