<svg width="100" height="100" fill="none" xmlns="http://www.w3.org/2000/svg"><path d="M85.156 39.55a2.93 2.93 0 00-.796-2.007L60.922 12.64a2.93 2.93 0 00-2.133-.921H29.492a2.93 2.93 0 00-2.19.983L15.584 25.886a2.93 2.93 0 00-.74 1.946v51.66c0 2.249.849 4.303 2.243 5.86a8.754 8.754 0 00-2.243 5.859c0 4.846 3.943 8.789 8.789 8.789h52.734c4.846 0 8.79-3.943 8.79-8.79a8.754 8.754 0 00-2.244-5.858 8.754 8.754 0 002.243-5.86V39.551zM50 82.422c-4.846 0-8.79-3.943-8.79-8.789 0-1.207.346-3.405 3.326-8.543a80.818 80.818 0 013.053-4.84 2.93 2.93 0 014.822 0c.062.09 1.547 2.245 3.053 4.84 2.98 5.138 3.325 7.336 3.325 8.543 0 4.846-3.943 8.79-8.789 8.79zm21.597-34.564a5.834 5.834 0 01-4.017 1.594 5.839 5.839 0 01-4.265-1.843L49.859 33.312a5.859 5.859 0 01.249-8.283c2.36-2.217 6.07-2.106 8.282.249l13.456 14.296a5.86 5.86 0 01-.249 8.283z" fill="#323534"/><path d="M47.07 73.636A2.932 2.932 0 0050 76.562a2.933 2.933 0 002.93-2.927c-.025-.9-1.243-3.451-2.93-6.292-1.687 2.844-2.906 5.397-2.93 6.293zM47.07 0H29.492a2.93 2.93 0 00-2.93 2.93v2.93H50V2.93A2.93 2.93 0 0047.07 0z" fill="#323534"/></svg>