<svg width="100" height="100" fill="none" xmlns="http://www.w3.org/2000/svg"><path d="M63.065 44.054v19.982l27.212 13.606c1.715.857 3.732-.39 3.732-2.306V47.922l-30.944-3.868zm-7.416-.927c-1.608-.152-2.898 1.026-2.898 2.559v11.599c0 .984.546 1.868 1.425 2.306l3.732 1.866V43.41l-2.259-.282z" fill="#323534"/><path d="M47.593 57.286v-11.6c0-4.697 4.148-8.263 8.696-7.676l37.344 4.668c-1.984-11.548-8.7-22.272-18.772-29.028-10.941-7.338-24.761-9.53-37.613-6C20.108 12.353 5.99 31.523 5.99 49.96v12.35c0 3.024 1.78 5.789 4.616 7.078l56.946 23.475a14.856 14.856 0 0019.536-8.323c.273-.685.563-1.54.846-2.302L51.869 64.205a7.736 7.736 0 01-4.276-6.92zM26.792 63.05c-5.689 0-10.315-4.626-10.315-10.315 0-5.688 4.626-10.314 10.315-10.314 5.689 0 10.315 4.626 10.315 10.315 0 5.688-4.626 10.314-10.315 10.314z" fill="#323534"/><path d="M26.792 47.58a5.164 5.164 0 00-5.157 5.157 5.164 5.164 0 005.157 5.157 5.164 5.164 0 005.157-5.157 5.164 5.164 0 00-5.157-5.158z" fill="#323534"/></svg>