<svg width="40" height="40" fill="none" xmlns="http://www.w3.org/2000/svg"><path d="M20.863 32.371a.67.67 0 00-.624-.391c-3.44.069-6.902-1.315-9.36-4.18-3.707-4.323-3.833-10.82-.276-15.265 4.541-5.677 12.885-6.018 17.883-1.02 2.398 2.398 3.555 5.567 3.494 8.716-.006.27.147.51.391.625a8.51 8.51 0 012.352 1.617.668.668 0 001.128-.391c.13-1.014.173-1.814.139-2.605-.352-8.144-6.783-14.909-14.918-15.442-9.99-.654-18.205 7.918-16.944 18.014.969 7.757 7.602 13.662 15.414 13.944.779.028 1.563-.015 2.54-.143a.666.666 0 00.391-1.127 8.449 8.449 0 01-1.61-2.352z" fill="#FACE50"/><path d="M28.82 18.794a.667.667 0 00.318 1.23c.247.014.492.038.734.073a.67.67 0 00.764-.706 10.606 10.606 0 00-3.093-6.934c-4.28-4.28-11.324-4.155-15.443.375-3.71 4.08-3.638 10.501.156 14.503a10.605 10.605 0 007.169 3.302.65.65 0 00.67-.756l-.002-.014a.69.69 0 00-.645-.578c-.849-.05-1.593-.179-2.272-.394a.707.707 0 01-.48-.702C16.872 25.763 18.259 24 20 24c.22 0 .448.038.719.118a.667.667 0 00.745-.269c.055-.082.114-.16.173-.238.001 0 .08-.104.08-.106a.666.666 0 00-.771-1.022 2.644 2.644 0 01-.946.184A2.67 2.67 0 0117.334 20a2.668 2.668 0 012.479-2.645 4.69 4.69 0 01.375 0c1.39.1 2.479 1.26 2.479 2.645 0 .309-.061.627-.182.945a.668.668 0 001.02.773 8.643 8.643 0 012.253-1.207.667.667 0 00-.092-1.281c-.627-.127-1.134-.37-1.47-.707-1.13-1.13-.66-3.075 1.26-5.205a.686.686 0 01.496-.22c.17 0 .334.065.459.182a9.26 9.26 0 012.715 4.82.652.652 0 01-.307.694zm-14.276 7.993a.67.67 0 01-.469.22h-.027a.666.666 0 01-.458-.183 9.262 9.262 0 01-2.715-4.82.666.666 0 01.345-.731c.624-.322 1.4-.5 2.184-.5 1.027 0 1.88.287 2.4.808 1.13 1.129.658 3.075-1.26 5.206zm1.26-8.263c-.52.52-1.373.807-2.4.807-.784 0-1.56-.177-2.184-.5a.666.666 0 01-.345-.73 9.261 9.261 0 012.715-4.82.678.678 0 01.482-.183h.004a.671.671 0 01.468.22c1.92 2.13 2.391 4.076 1.26 5.206zm7.5-6.68c-.16 2.338-1.443 4.058-3.119 4.181a5.067 5.067 0 01-.37 0c-1.676-.123-2.958-1.843-3.12-4.18a.666.666 0 01.463-.682 9.333 9.333 0 015.685 0 .667.667 0 01.462.68zm5.363 15.49c-.115 0-.218.038-.325.065l-1.201-1.201a.666.666 0 10-.943.943l1.201 1.2c-.027.108-.065.21-.065.326a1.334 1.334 0 101.333-1.334z" fill="#FACE50"/><path d="M28.667 21.334c-4.043 0-7.334 3.29-7.334 7.333 0 1.01.209 1.997.619 2.934a7.334 7.334 0 006.715 4.4 7.334 7.334 0 006.715-4.4c.41-.937.619-1.924.619-2.934 0-4.044-3.291-7.334-7.334-7.334zm5.333 8h.598a5.916 5.916 0 01-.309 1.333H23.045a5.928 5.928 0 01-.309-1.333h.598a.666.666 0 100-1.334h-.6A5.932 5.932 0 0124 24.943l.195.195a.665.665 0 00.943 0 .666.666 0 000-.943L24.943 24A5.933 5.933 0 0128 22.734v.6a.666.666 0 101.334 0v-.6A5.933 5.933 0 0132.39 24l-.195.195a.666.666 0 10.943.943l.195-.195A5.933 5.933 0 0134.6 28H34a.666.666 0 100 1.334z" fill="#FACE50"/></svg>