<svg width="100" height="100" fill="none" xmlns="http://www.w3.org/2000/svg"><g clip-path="url(#clip0)" fill="#323534"><path d="M93.197 69.436c-1.765 1.379-4.4 1.421-6.219.13a20.178 20.178 0 004.565-6.085H5.326a19.99 19.99 0 005.563 6.95c-1.42.233-2.938-.099-4.086-.995C4.89 67.942 2.475 67.117 0 67.117v5.86a5.21 5.21 0 013.197 1.076c3.942 3.08 9.664 3.08 13.606 0 1.807-1.415 4.56-1.432 6.394 0 3.942 3.08 9.664 3.08 13.606 0 1.843-1.44 4.596-1.406 6.394 0 3.942 3.08 9.664 3.08 13.606 0 1.854-1.447 4.608-1.4 6.392 0 3.944 3.08 9.666 3.08 13.608 0 1.845-1.44 4.591-1.409 6.394 0 3.934 3.076 9.655 3.086 13.606 0A5.21 5.21 0 01100 72.977v-5.86c-2.475 0-4.89.824-6.803 2.319zm-6.394 12.5c-3.942-3.08-9.664-3.08-13.607 0-1.822 1.423-4.57 1.423-6.392 0-3.943-3.08-9.665-3.08-13.608 0-1.822 1.423-4.57 1.423-6.392 0-3.943-3.08-9.665-3.08-13.608 0-1.822 1.423-4.57 1.423-6.392 0-3.943-3.08-9.665-3.08-13.608 0-1.822 1.423-4.57 1.423-6.392 0C4.89 80.44 2.474 79.618 0 79.618v5.86c1.173 0 2.308.381 3.196 1.075 3.943 3.08 9.665 3.08 13.607 0 1.823-1.423 4.571-1.423 6.393 0 3.943 3.08 9.665 3.08 13.607 0 1.823-1.423 4.571-1.423 6.393 0 3.943 3.08 9.665 3.08 13.607 0 1.823-1.423 4.57-1.423 6.393 0 3.942 3.08 9.665 3.08 13.607 0 1.822-1.423 4.57-1.423 6.393 0 3.942 3.08 9.664 3.08 13.607 0A5.206 5.206 0 01100 85.477v-5.86c-2.474 0-4.89.824-6.804 2.319-1.822 1.423-4.57 1.423-6.392 0zm11.439-27.244c0-15.248-12.33-29.492-27.93-29.492H67.53l-6.25-14.063H50v5.86h7.471l4.324 9.728c-.827 1.792-2.23 5.017-3.252 6.472-3.879 5.526-11.14 7.584-17.335 4.889 2.676-6.037-1.763-12.886-8.395-12.886H21.875c-6.508 0-10.973 6.633-8.492 12.661a15.31 15.31 0 00-8.67 4.357C1.748 45.184.196 50.738.196 54.692v2.93h98.047v-2.93z"/></g><defs><clipPath id="clip0"><path fill="#fff" d="M0 0h100v100H0z"/></clipPath></defs></svg>