<svg width="40" height="40" fill="none" xmlns="http://www.w3.org/2000/svg"><path d="M35.763 29.604l-2.492-5.26c-.313-.664-1.402-.664-1.716 0l-2.477 5.234a3.8 3.8 0 106.685.026zM33.6 21.129a.952.952 0 00-.805-.806l-9.634-1.37-1.025-3.825a2.864 2.864 0 00-1.327-1.73l-3.432-1.982.95-1.645c1.35.52 2.98 2.437 3.766 1.077a.95.95 0 00-.348-1.298l-6.581-3.8a.95.95 0 10-.95 1.646l2.467 1.425-.95 1.645-3.98-2.299L9.617 5.76a2.849 2.849 0 00-4.6.466l-.848 1.468a2.847 2.847 0 00.337 3.315l2.623 2.958-1.083 1.876L23.98 26.198l9.072-4.07a.95.95 0 00.547-1zM8.13 12.233L5.927 9.75a.95.95 0 01-.112-1.106l.848-1.468a.95.95 0 011.533-.156l1.782 2.012-1.848 3.201zm-3.034 5.255l-.475.823a2.849 2.849 0 001.043 3.893l10.67 6.16c.797.46 1.772.507 2.606.127l2.915-1.327-16.76-9.676z" fill="#FACE50"/></svg>