<svg width="100" height="100" fill="none" xmlns="http://www.w3.org/2000/svg"><path d="M3.906 62.5a2.344 2.344 0 002.344 2.344h.968A14.766 14.766 0 009.86 71.2l-.69.69a2.344 2.344 0 003.314 3.315l.69-.69a14.765 14.765 0 006.357 2.641v.968a2.344 2.344 0 004.688 0v-.968a14.765 14.765 0 006.357-2.642l.69.69a2.345 2.345 0 003.315-3.314l-.69-.69a14.765 14.765 0 002.641-6.357h.968a2.344 2.344 0 000-4.688h-.968A14.765 14.765 0 0033.89 53.8l.69-.69a2.345 2.345 0 00-3.314-3.315l-.69.69a14.765 14.765 0 00-6.357-2.641v-.968a2.344 2.344 0 00-4.688 0v.968a14.765 14.765 0 00-6.357 2.642l-.69-.69a2.345 2.345 0 00-3.315 3.314l.69.69a14.766 14.766 0 00-2.641 6.357H6.25A2.344 2.344 0 003.906 62.5zm11.719 0a6.25 6.25 0 1112.5 0 6.25 6.25 0 01-12.5 0zm47.656 0a2.344 2.344 0 002.344 2.344h.968a14.765 14.765 0 002.642 6.357l-.69.69a2.344 2.344 0 003.314 3.315l.69-.69a14.765 14.765 0 006.357 2.641v.968a2.344 2.344 0 004.688 0v-.968a14.765 14.765 0 006.357-2.642l.69.69a2.344 2.344 0 003.315-3.314l-.69-.69a14.765 14.765 0 002.641-6.357h.968a2.344 2.344 0 000-4.688h-.968a14.765 14.765 0 00-2.642-6.357l.69-.69a2.344 2.344 0 00-3.314-3.315l-.69.69a14.765 14.765 0 00-6.357-2.641v-.968a2.344 2.344 0 00-4.688 0v.968a14.765 14.765 0 00-6.357 2.642l-.69-.69a2.344 2.344 0 00-3.315 3.314l.69.69a14.765 14.765 0 00-2.641 6.357h-.968a2.344 2.344 0 00-2.344 2.344zM75 62.5a6.25 6.25 0 1112.5 0 6.25 6.25 0 01-12.5 0zM13.67 29.417a2.343 2.343 0 011.955-3.636H43.75c3.472 0 6.11 1.09 7.842 3.24.157.194.298.39.432.591-10.343 2.634-24.293 4.17-34.955 4.95l-3.4-5.145z" fill="#323534"/><path d="M3.125 25.781H6.25a2.344 2.344 0 012.344 2.344v9.149c8.09-.396 19.849-1.21 29.001-2.53 12.909-1.861 21.841-4.311 26.633-7.296l-3.176-6.354h-4.724a2.394 2.394 0 01-2.422-2.3 2.342 2.342 0 012.344-2.388h6.25a2.344 2.344 0 012.096 1.296l4.492 8.984c.044.09.083.181.115.275l.542.187 3.113-7.006a2.344 2.344 0 013.077-1.197l17.968 7.813a2.344 2.344 0 011.22 3.073l-2.344 5.468c-.07.164-.158.319-.263.462l2.765 1.1a2.342 2.342 0 011.472 2.14l.098 6.33a2.343 2.343 0 01-1.387 2.176l-1.904.852a18.753 18.753 0 00-30.791 10.955h-.01c-.226-11.215 1.807-18.874 6.213-23.418 2.939-3.03 6.964-4.59 11.965-4.64 2.562.977 5.093 1.958 7.36 2.845.027-.223.085-.44.173-.647l1.426-3.326-13.698-5.956-2.025 4.555c.637.232 1.282.47 1.935.712-3.493.77-6.448 2.382-8.818 4.825-3.527 3.637-5.677 8.955-6.502 16.129H36.029c-3.502-4.047-8.605-6.64-14.154-6.64a18.635 18.635 0 00-7.239 1.448l-9.305-3.969a2.344 2.344 0 01-1.425-2.156V30.47h-.703a2.394 2.394 0 01-2.422-2.3 2.343 2.343 0 012.344-2.388z" fill="#323534"/><path d="M60.57 52.734a70.97 70.97 0 00-.165 5.94.69.69 0 01-.69.701s-19.246.203-19.285 0a19.247 19.247 0 00-2.658-6.64h22.797z" fill="#323534"/></svg>