<svg width="40" height="40" fill="none" xmlns="http://www.w3.org/2000/svg"><path d="M29.06 24.576a.928.928 0 01-.49-.819v-.928h-6.5a.928.928 0 01-.93-.929v-3.714a.93.93 0 01.93-.93h6.5v-.928a.928.928 0 011.444-.772l5.572 3.714a.929.929 0 010 1.545l-5.572 3.715a.929.929 0 01-.953.046zM26.714 5.06V15.4h-4.643c-.334 0-.632.055-.929.166v-4.934c0-1.04-.575-1.987-1.541-2.488l-8.005-4.012h14.19a.92.92 0 01.928.928zM22.07 24.686h4.642v6.5a.92.92 0 01-.928.93H21.14v-7.597c.297.112.594.167.928.167z" fill="#FACE50"/><path d="M18.764 9.797L7.62 4.225c-.278-.13-.631-.13-.891.037a.967.967 0 00-.446.799v26.125c0 .41.26.762.632.873l11.144 3.715c.273.11.623.048.835-.111a.968.968 0 00.39-.762V10.632a.95.95 0 00-.52-.835zM15.57 21.9a.92.92 0 01-.929.929.92.92 0 01-.929-.929v-3.714a.92.92 0 01.929-.93.92.92 0 01.929.93V21.9z" fill="#FACE50"/></svg>