<svg width="101" height="100" fill="none" xmlns="http://www.w3.org/2000/svg"><path d="M34.004 73.998c-4.42 0-7.96 3.58-7.96 8s3.54 8 7.96 8 8-3.58 8-8-3.58-8-8-8zM38.404 54H68.2c3 0 5.62-1.66 7-4.12l14.3-25.958c.32-.56.5-1.22.5-1.92 0-2.22-1.8-4-4-4H26.864l-3.366-7.086a1.6 1.6 0 00-1.445-.913h-8.048a4 4 0 000 8h4L32.384 48.34l-5.4 9.8a8.131 8.131 0 00-.98 3.86 7.998 7.998 0 008 7.999H78a4 4 0 100-8H35.704c-.56 0-1-.44-1-1 0-.18.04-.34.12-.48l3.58-6.52zm35.597 19.998c-4.42 0-7.96 3.58-7.96 8s3.54 8 7.96 8 8-3.58 8-8-3.58-8-8-8z" fill="#323534"/></svg>