<svg width="20" height="20" fill="none" xmlns="http://www.w3.org/2000/svg"><g clip-path="url(#clip0)"><path fill-rule="evenodd" clip-rule="evenodd" d="M6 18.5a1.5 1.5 0 113 0 1.5 1.5 0 01-3 0zm8 0a1.5 1.5 0 103 0 1.5 1.5 0 00-3 0z" fill="#323534"/><path d="M1 2.633h2.76l2.069 11.9h11.038" stroke="#323534" stroke-width="2" stroke-linecap="round" stroke-linejoin="round"/><path d="M5.768 11.7h10.66a.362.362 0 00.216-.07.307.307 0 00.119-.18l1.23-5.61a.285.285 0 00-.003-.137.301.301 0 00-.067-.122.34.34 0 00-.119-.084.37.37 0 00-.146-.03H4.4" stroke="#323534" stroke-width="2" stroke-linecap="round" stroke-linejoin="round"/></g><defs><clipPath id="clip0"><path fill="#fff" d="M0 0h20v20H0z"/></clipPath></defs></svg>