<svg width="100" height="100" fill="none" xmlns="http://www.w3.org/2000/svg"><g clip-path="url(#clip0)" fill="#323534"><path d="M67.11 97.293c2.372-.003 4.324-1.84 5.038-4.335-.4.064-.798.137-1.211.136h-7.66c-.412 0-.809-.072-1.207-.136.714 2.497 2.669 4.332 5.04 4.335zm3.697-42.077v-8.39h-7.17v8.39h7.17zm10.753 0c.99 0 1.794-.939 1.794-2.098l.002-4.193c0-1.16-.803-2.099-1.794-2.099h-7.17v8.39h7.168zM61.73 88.55c.497.178 1.002.349 1.546.348l7.663.002c.545.001 1.05-.17 1.548-.348v-.002c1.968-.71 3.654-2.957 3.813-5.465 0-.008.005-.015.005-.023l1.544-23.651H56.595l1.32 23.648c.157 2.56 1.84 4.778 3.816 5.49zm16.247-45.918v-4.196h-2.1c-.99 0-1.793-.939-1.793-2.097 0-1.16.802-2.097 1.793-2.097h2.1l.001-4.195h-2.101c-.99 0-1.793-.939-1.793-2.097 0-1.159.802-2.097 1.793-2.097h2.102v-2.1c-.004-3.466-2.415-6.288-5.379-6.29h-3.586v-2.1c0-1.158-.802-2.096-1.792-2.096s-1.792.938-1.792 2.097v2.097h-3.588c-.635 0-1.225.188-1.79.426v-2.522c0-3.466 2.413-6.288 5.378-6.293h3.584c.99 0 1.793-.938 1.793-2.097 0-1.158-.803-2.097-1.793-2.097H65.43c-4.942 0-8.963 4.706-8.963 10.487v10.488h2.1c.99 0 1.792.938 1.792 2.097s-.802 2.097-1.792 2.097h-2.1v4.195h2.1c.99 0 1.792.938 1.792 2.097 0 1.158-.802 2.097-1.792 2.097h-2.1v4.196h21.51zM52.883 55.216h7.17l-.001-8.39H52.88c-.99 0-1.792.94-1.791 2.097v4.195c0 1.159.803 2.098 1.793 2.098zM36.265 44.44l-15.524-7.255v-9.113l15.524 7.256v9.113zm0 27.487l-15.524-7.256V55.56l15.524 7.256v9.112zm.001-13.743l-15.524-7.256v-9.112l15.524 7.256v9.112zm-.001 23.705h1.663a2.098 2.098 0 110 4.195h-2.534a7.712 7.712 0 01.871 3.567c0 4.28-3.482 7.762-7.762 7.762-2.14 0-4.08-.87-5.486-2.276a7.738 7.738 0 01-1.404-9.053h-2.535a2.09 2.09 0 01-1.483-.614 2.098 2.098 0 011.483-3.58l1.663-.001V69.302l15.525 7.256v5.33zM24.937 89.65a3.57 3.57 0 003.566 3.567 3.57 3.57 0 003.567-3.567c0-.984-.4-1.875-1.046-2.521a3.556 3.556 0 00-2.519-1.046h-.003a3.571 3.571 0 00-3.565 3.567zm3.566-87.063c4.28 0 7.762 3.482 7.763 7.762a7.711 7.711 0 01-.872 3.567h2.535a2.098 2.098 0 110 4.195h-1.663v12.587l-15.524-7.256v-5.33h-1.664a2.09 2.09 0 01-1.483-.615 2.098 2.098 0 011.483-3.58h2.535a7.712 7.712 0 01-.872-3.568c0-4.28 3.483-7.762 7.762-7.762zm-3.566 7.762a3.57 3.57 0 003.564 3.567h.004a3.57 3.57 0 003.565-3.567c0-.983-.4-1.874-1.046-2.52a3.556 3.556 0 00-2.52-1.046 3.57 3.57 0 00-3.567 3.566z"/></g><defs><clipPath id="clip0"><path fill="#fff" transform="matrix(-1 0 0 1 100 0)" d="M0 0h100v100H0z"/></clipPath></defs></svg>