<svg width="40" height="40" fill="none" xmlns="http://www.w3.org/2000/svg"><path d="M18.333 4.167h.834v1.666a.833.833 0 101.666 0V4.167h.834a.833.833 0 00.693-1.296l-1.666-2.5A.848.848 0 0020 0c-.27 0-.54.14-.694.371l-1.667 2.5a.832.832 0 00.693 1.296z" fill="#FACE50"/><path fill-rule="evenodd" clip-rule="evenodd" d="M5.055 28.8a.833.833 0 00-.055.3v.066c0 1.38 1.121 2.5 2.5 2.5h9.863l-.127.043a.835.835 0 000 1.582l2.629.876-2.629.875a.835.835 0 000 1.582l2.629.876-2.502.833H7.5A.833.833 0 107.5 40h25a.833.833 0 100-1.667h-9.863l.127-.042a.835.835 0 000-1.582l-2.629-.876 2.629-.875a.835.835 0 000-1.582l-2.629-.876 2.502-.834H32.5c1.379 0 2.5-1.12 2.5-2.5V29.1a.832.832 0 00-.056-.3H5.055zm25.126-9.933c-.691 0-1.334.18-1.91.473L27.13 18a5.667 5.667 0 011.63-.65 6.956 6.956 0 011.426-.15 2.424 2.424 0 001.71-.694c.483-.472.76-1.128.76-1.905 0-4.268-3.64-7.402-7.484-7.402h-.953a.838.838 0 00-.844.833c0 .46.378.834.844.834h.953c.197 0 .386.026.575.052l.16.021v1.61a4.23 4.23 0 00-1.389.395.083.083 0 00-.009-.008l-.009-.009c-.692.32-1.29.82-1.722 1.46l-1.92 2.846a.847.847 0 01-.575.361 5.314 5.314 0 00-3.966 2.905 6.572 6.572 0 011.152 3.7h-1.744c0-2.757-2.27-5-5.063-5-2.791 0-5.062 2.243-5.062 5s2.27 5 5.063 5a5.05 5.05 0 004.751-3.333h7.961a.838.838 0 00.844-.834c0-.463.056-.936.165-1.404.23-.973.743-1.859 1.43-2.582l1.14 1.336a4.096 4.096 0 00-.992 2.65c0 2.298 1.893 4.167 4.22 4.167 2.325 0 4.218-1.87 4.218-4.167 0-2.297-1.893-4.166-4.219-4.166zm-19.519 6.666c-1.86 0-3.375-1.495-3.375-3.333s1.514-3.333 3.375-3.333c1.862 0 3.375 1.495 3.375 3.333h-2.53a.84.84 0 01-.845-.833.838.838 0 00-.843-.834.838.838 0 00-.844.834c0 1.378 1.136 2.5 2.531 2.5h2.062a3.37 3.37 0 01-2.905 1.666zm19.52 0c-1.396 0-2.532-1.121-2.532-2.5 0-.483.146-.93.387-1.313l1.485 1.834a.852.852 0 001.187.13.828.828 0 00.131-1.172l-1.483-1.831c.26-.09.534-.148.824-.148 1.396 0 2.531 1.122 2.531 2.5 0 1.379-1.135 2.5-2.53 2.5zM19.928 13.606l1.445-2.142a5.846 5.846 0 011.757-1.673c-.926-.578-1.994-.924-3.131-.924a5.942 5.942 0 00-4.92 2.613l1.35.8c1.085.642 2.272 1.072 3.499 1.326zm-9.781-3.073l5.414 3.176c.707.418 1.458.741 2.225 1.018-1.06.566-1.984 1.372-2.639 2.412a.083.083 0 00-.008.022l-.007.019c-1.876-1.61-3.627-1.647-5.314-1.647-2.326 0-4.219-1.87-4.219-4.166 0-.46.377-.834.844-.834h3.704z" fill="#FACE50"/></svg>