<svg width="100" height="100" fill="none" xmlns="http://www.w3.org/2000/svg"><g clip-path="url(#clip0)"><path d="M94.068 47.572c-1.17-.51-1.949-1.536-2.133-2.817-.187-1.29.275-2.507 1.265-3.337 3.472-2.906 4.53-7.63 2.631-11.755-1.88-4.087-6.11-6.337-10.529-5.6-1.24.207-2.429-.223-3.261-1.18-.856-.984-1.122-2.266-.729-3.517 1.363-4.34-.29-8.893-4.112-11.331-3.78-2.411-8.548-1.998-11.865 1.027a3.473 3.473 0 01-3.38.79c-1.23-.36-2.128-1.286-2.465-2.54C58.316 2.94 54.503.002 50 .002c-4.502 0-8.316 2.937-9.49 7.31-.337 1.254-1.235 2.18-2.464 2.54-1.211.353-2.443.066-3.381-.79C31.348 6.037 26.58 5.624 22.8 8.035c-3.822 2.438-5.474 6.992-4.112 11.332.393 1.25.128 2.532-.729 3.517-.832.956-2.021 1.387-3.261 1.18-4.418-.738-8.649 1.513-10.53 5.599-1.897 4.125-.84 8.849 2.632 11.756.99.83 1.452 2.046 1.266 3.336-.185 1.281-.963 2.308-2.134 2.817C1.8 49.37-.542 53.592.107 58.075c.648 4.467 4.076 7.839 8.532 8.388 1.254.155 2.28.911 2.814 2.075a3.613 3.613 0 01-.282 3.58c-2.521 3.779-2.209 8.616.778 12.037 2.95 3.38 7.638 4.334 11.665 2.374a3.466 3.466 0 013.454.203c1.09.697 1.7 1.848 1.672 3.156-.095 4.542 2.756 8.444 7.094 9.708a9.982 9.982 0 002.796.403c3.348 0 6.49-1.725 8.324-4.743.667-1.097 1.777-1.727 3.046-1.727s2.38.63 3.046 1.727c2.341 3.852 6.81 5.596 11.12 4.34 4.339-1.265 7.19-5.166 7.094-9.708-.027-1.308.582-2.459 1.672-3.157a3.467 3.467 0 013.454-.202c4.027 1.96 8.715 1.006 11.666-2.374 2.986-3.421 3.3-8.259.778-12.038a3.613 3.613 0 01-.282-3.58c.534-1.163 1.56-1.92 2.814-2.074 4.455-.55 7.884-3.92 8.531-8.389.649-4.483-1.692-8.704-5.825-10.502zM40.625 28.125a6.257 6.257 0 016.25 6.25 6.257 6.257 0 01-6.25 6.25 6.257 6.257 0 01-6.25-6.25 6.257 6.257 0 016.25-6.25zm18.75 43.75a6.257 6.257 0 01-6.25-6.25 6.257 6.257 0 016.25-6.25 6.257 6.257 0 016.25 6.25 6.257 6.257 0 01-6.25 6.25zm8.46-35.29l-31.25 31.25c-.61.61-1.41.915-2.21.915s-1.599-.305-2.21-.916a3.125 3.125 0 010-4.419l31.25-31.25a3.125 3.125 0 114.42 4.42z" fill="#323534"/></g><defs><clipPath id="clip0"><path fill="#fff" d="M0 0h100v100H0z"/></clipPath></defs></svg>