<svg width="101" height="100" fill="none" xmlns="http://www.w3.org/2000/svg"><path d="M27.516 44.487v11.03a3.322 3.322 0 01-3.318 3.318H13.17a3.321 3.321 0 01-3.319-3.319v-11.03a3.319 3.319 0 013.32-3.318h11.027a3.321 3.321 0 013.318 3.319zm59.314-3.32H37.526a3.32 3.32 0 00-3.319 3.32v11.03a3.323 3.323 0 003.319 3.318h49.307a3.322 3.322 0 003.319-3.319v-11.03a3.323 3.323 0 00-3.322-3.318zM24.198 16H13.17a3.319 3.319 0 00-3.319 3.319v11.03a3.319 3.319 0 003.32 3.318h11.027a3.319 3.319 0 003.318-3.319v-11.03A3.321 3.321 0 0024.198 16zm62.632 0H37.526a3.32 3.32 0 00-3.319 3.319v11.03a3.32 3.32 0 003.319 3.318h49.307a3.319 3.319 0 003.319-3.319v-11.03A3.323 3.323 0 0086.83 16zM24.198 66.338H13.17a3.319 3.319 0 00-3.319 3.319v11.027a3.317 3.317 0 003.32 3.319h11.027a3.317 3.317 0 003.318-3.32V69.658a3.319 3.319 0 00-3.318-3.32zm62.632 0H37.526a3.32 3.32 0 00-3.319 3.319v11.027a3.319 3.319 0 003.319 3.319h49.307a3.317 3.317 0 003.319-3.32V69.658a3.32 3.32 0 00-3.322-3.32z" fill="#323534"/></svg>